<?xml version="1.0" standalone="no"?>
<!DOCTYPE svg PUBLIC "-//W3C//DTD SVG 20010904//EN"
 "http://www.w3.org/TR/2001/REC-SVG-20010904/DTD/svg10.dtd">
<svg version="1.0" xmlns="http://www.w3.org/2000/svg"
 width="1024.000000pt" height="1024.000000pt" viewBox="0 0 1024.000000 1024.000000"
 preserveAspectRatio="xMidYMid meet">

<g transform="translate(0.000000,1024.000000) scale(0.100000,-0.100000)"
fill="#000000" stroke="none">
<path d="M3945 9211 c-114 -45 -209 -112 -261 -184 -19 -26 -41 -50 -48 -53
-8 -3 -33 7 -55 21 -31 21 -47 26 -68 20 -16 -4 -45 -8 -65 -9 -45 -3 -102
-45 -128 -96 -60 -115 -80 -164 -75 -179 7 -23 -43 -136 -80 -180 l-28 -33
-14 53 c-16 61 -37 89 -68 89 -33 0 -57 -33 -63 -87 -4 -35 -14 -59 -39 -87
-18 -22 -33 -46 -33 -53 0 -30 -17 -8 -60 74 -51 99 -80 120 -128 92 -26 -14
-27 -18 -27 -96 l0 -82 -65 63 c-129 125 -320 215 -457 216 -45 0 -76 -21 -71
-49 3 -13 15 -15 70 -13 110 6 233 -41 368 -140 64 -47 130 -108 130 -120 0
-5 -18 1 -40 12 -50 25 -111 26 -133 2 -21 -24 -22 -61 -1 -91 19 -26 137 -86
142 -71 2 5 -13 30 -32 56 -52 68 -49 76 13 44 40 -20 63 -45 93 -100 22 -39
61 -39 66 -1 2 14 10 35 18 47 14 20 13 27 -10 71 -24 48 -55 188 -43 199 24
25 81 -77 118 -211 24 -89 33 -105 60 -105 16 0 18 8 16 73 -1 64 14 132 35
153 4 3 9 -15 12 -40 3 -25 9 -67 12 -92 5 -41 25 -66 40 -51 3 3 4 47 3 99
-4 143 -2 199 9 210 20 20 32 -69 36 -258 3 -163 6 -190 20 -199 23 -13 41 12
50 68 14 87 46 142 46 78 0 -35 20 -53 56 -49 22 2 36 18 73 78 64 103 152
162 151 102 0 -9 -23 -44 -50 -76 -58 -70 -125 -198 -117 -221 9 -22 37 -31
48 -14 5 8 16 39 25 69 21 73 86 160 119 160 29 0 31 -7 9 -31 -9 -10 -17 -33
-17 -51 -3 -48 29 -41 78 19 116 139 265 263 301 249 27 -10 16 -54 -21 -82
-65 -50 -35 -97 44 -69 20 7 84 23 143 35 108 23 165 22 187 -4 9 -11 -1 -14
-53 -20 -150 -15 -436 -124 -444 -169 -5 -24 33 -22 67 3 86 61 428 128 452
88 5 -8 43 -12 126 -13 78 0 126 -5 141 -14 27 -15 67 -8 75 13 15 40 -68 86
-155 86 -18 0 -52 9 -75 20 -41 18 -105 79 -97 91 2 4 32 10 66 14 88 9 96 12
115 48 9 18 32 51 51 75 73 89 49 166 -65 213 -60 25 -90 27 -248 19 -74 -4
-90 -2 -93 11 -1 8 11 22 27 32 49 29 120 107 137 153 22 58 14 117 -21 154
-54 57 -187 66 -300 21z m45 -259 c0 -4 -9 -13 -20 -20 -22 -13 -27 -3 -8 16
14 14 28 16 28 4z m-400 -484 c-1 -7 -12 -26 -25 -43 -23 -28 -25 -28 -25 -8
0 12 -6 23 -12 26 -9 3 -7 10 7 21 24 19 55 21 55 4z m374 -32 c-6 -16 -44
-29 -44 -16 0 9 29 29 42 30 4 0 5 -6 2 -14z"/>
<path d="M2408 8221 c-44 -9 -88 -36 -88 -55 0 -22 -32 -42 -85 -55 -56 -14
-210 -103 -266 -153 -44 -40 -54 -59 -89 -162 -24 -72 -27 -96 -28 -221 -1
-154 8 -204 45 -253 13 -18 27 -49 29 -70 10 -75 13 -80 83 -125 37 -25 85
-52 105 -61 42 -17 46 -33 11 -42 -19 -5 -26 -15 -31 -43 -3 -20 -7 -41 -9
-47 -2 -6 -37 -20 -78 -32 -70 -21 -96 -40 -81 -63 9 -15 50 -10 104 11 60 24
96 26 103 6 6 -15 -67 -63 -273 -178 -149 -84 -174 -113 -132 -151 16 -14 26
-12 128 27 60 24 141 59 179 79 38 20 71 34 74 31 6 -6 6 -6 -66 -99 -57 -74
-66 -110 -34 -139 15 -13 28 -16 57 -10 22 3 45 11 52 17 10 8 16 7 21 -2 6
-9 16 -2 37 25 74 101 108 146 140 179 19 20 34 43 34 51 0 12 4 12 20 2 17
-11 23 -9 48 15 15 15 36 27 45 27 30 0 20 -14 -45 -64 -25 -18 -42 -42 -50
-67 -10 -35 -23 -45 -52 -40 -13 3 -46 -30 -46 -45 0 -18 40 -44 66 -44 14 0
32 13 46 31 38 53 128 143 134 136 4 -3 -7 -24 -24 -45 -62 -78 -62 -112 1
-112 25 0 27 -3 26 -32 -2 -18 3 -43 9 -55 7 -12 12 -37 12 -55 0 -40 8 -53
38 -62 12 -4 22 -13 22 -20 0 -28 -31 -86 -45 -86 -8 0 -15 -6 -15 -14 0 -18
31 -30 40 -15 6 8 9 8 14 0 14 -22 46 8 52 50 10 60 24 57 24 -5 0 -40 -5 -59
-17 -68 -10 -7 -53 -49 -98 -94 -122 -123 -192 -164 -281 -164 -32 0 -44 -4
-44 -15 0 -24 38 -55 66 -55 37 0 170 82 255 157 40 35 74 61 76 59 2 -2 -2
-20 -11 -39 -20 -50 -86 -118 -162 -168 -64 -43 -77 -66 -49 -89 11 -9 29 -1
93 49 82 62 125 109 166 181 l24 42 7 -41 c4 -22 14 -50 24 -62 16 -20 22 -21
99 -12 l82 9 11 -58 c12 -62 37 -93 66 -84 10 3 22 6 27 6 13 0 11 -132 -3
-157 -6 -12 -11 -31 -11 -43 0 -34 42 -22 62 18 9 19 31 41 50 50 39 20 68 72
68 125 0 59 15 44 40 -40 58 -197 115 -305 153 -290 26 10 21 34 -28 132 -26
52 -60 145 -81 220 -40 147 -45 159 -67 163 -19 4 -57 -64 -57 -101 0 -13 -7
-48 -16 -78 -24 -85 -23 -84 -36 -71 -8 8 -7 47 2 144 11 115 15 136 34 153
13 11 32 34 44 51 17 25 26 30 51 26 40 -6 76 34 97 106 21 70 14 143 -19 208
-18 36 -27 72 -31 134 l-6 85 20 -55 c27 -74 69 -124 107 -128 42 -4 59 19 43
58 -14 34 -57 73 -71 64 -9 -5 -83 146 -96 194 -10 41 17 22 70 -48 27 -36 74
-92 106 -125 32 -33 65 -75 75 -93 17 -34 34 -40 54 -20 25 25 12 60 -45 123
-58 62 -122 165 -103 165 5 0 17 -11 25 -24 9 -14 40 -33 75 -45 33 -12 97
-44 142 -71 93 -54 158 -73 158 -46 0 10 -4 15 -8 12 -5 -3 -9 8 -10 25 -1 39
-18 59 -51 59 -14 0 -50 11 -78 25 -64 29 -196 106 -191 110 9 9 118 -21 148
-42 40 -27 63 -29 80 -8 16 19 38 13 110 -31 54 -32 196 -69 226 -57 16 6 27
34 16 45 -4 4 -41 16 -83 27 -149 38 -198 96 -62 73 133 -22 161 -24 198 -12
35 11 38 10 67 -16 37 -37 103 -39 148 -5 17 12 44 24 62 28 48 9 57 20 51 57
-5 33 -5 34 45 46 51 12 132 57 132 73 0 5 9 20 20 34 25 32 25 52 3 69 -40
30 -73 2 -58 -47 6 -17 4 -20 -12 -15 -12 4 -30 -7 -57 -34 -40 -41 -76 -52
-76 -25 0 21 42 85 74 112 14 13 26 28 26 34 0 5 12 36 27 67 25 51 28 70 31
182 3 93 -2 155 -16 241 -22 126 -46 183 -127 304 -26 38 -58 91 -71 116 -51
102 -154 153 -333 164 -72 5 -115 4 -123 -3 -7 -5 -47 -13 -88 -17 -76 -7
-100 -17 -100 -41 0 -18 27 -24 93 -19 36 3 56 1 52 -5 -3 -6 -35 -10 -70 -10
-68 0 -130 -21 -213 -73 -48 -31 -52 -32 -52 -14 0 16 99 82 145 97 45 15 47
40 3 40 -105 0 -302 -163 -357 -295 -16 -38 -36 -97 -45 -130 -17 -68 -24
-220 -12 -280 l7 -40 -23 30 c-40 53 -79 84 -120 97 -22 6 -47 22 -55 35 -9
14 -29 25 -51 28 -21 3 -52 13 -71 21 -18 8 -41 12 -51 9 -14 -4 -18 3 -24 41
-3 26 -6 60 -6 76 0 33 -66 270 -86 310 -8 14 -24 35 -38 45 -13 10 -33 37
-45 60 -43 86 -192 146 -303 124z m157 -75 c56 -18 115 -51 115 -65 0 -6 -20
-1 -44 10 -24 10 -66 22 -93 26 -26 3 -57 12 -68 19 -11 8 -27 14 -37 14 -10
0 -18 5 -18 11 0 15 74 7 145 -15z m-125 -66 c0 -5 -2 -10 -4 -10 -3 0 -8 5
-11 10 -3 6 -1 10 4 10 6 0 11 -4 11 -10z m1793 -41 c20 -6 37 -15 37 -21 0
-18 -193 13 -206 33 -6 11 113 2 169 -12z m-1544 -33 c18 -10 31 -28 40 -56 7
-23 11 -43 9 -45 -2 -2 -25 23 -51 56 -48 60 -48 70 2 45z m-242 -7 c58 -15
117 -70 132 -124 14 -50 14 -215 1 -286 -15 -77 -50 -143 -120 -225 -69 -82
-111 -104 -193 -103 -72 0 -169 56 -213 121 -95 141 -97 323 -7 470 42 68 80
101 144 124 90 32 184 41 256 23z m1201 -107 c-59 -60 -86 -97 -117 -164 -23
-47 -41 -95 -41 -106 0 -11 -7 -25 -15 -32 -23 -19 -30 12 -11 49 9 16 16 41
16 54 0 23 50 113 96 175 25 32 119 102 138 102 5 0 -25 -35 -66 -78z m469 57
c87 -33 217 -168 264 -274 38 -86 29 -276 -17 -368 -86 -169 -215 -236 -431
-224 -104 5 -228 40 -266 74 -39 36 -108 157 -124 216 -25 100 1 266 60 383
26 52 95 123 164 168 74 49 251 61 350 25z m-2121 -54 c-23 -30 -46 -45 -46
-30 0 9 63 75 68 71 3 -3 -7 -21 -22 -41z m666 7 c36 -54 41 -76 33 -150 -8
-78 -21 -67 -31 28 -3 36 -15 86 -25 113 -22 57 -11 61 23 9z m1670 -1 c10
-19 16 -37 14 -39 -3 -2 -23 15 -46 38 l-41 41 28 -3 c20 -2 33 -12 45 -37z
m-832 -27 c0 -3 -9 -19 -21 -35 -50 -71 -90 -187 -104 -306 -8 -61 -21 -69
-31 -17 -8 46 9 155 37 228 25 63 119 167 119 130z m-675 -196 c5 -36 3 -58
-4 -62 -16 -10 -27 50 -22 124 2 30 4 32 11 14 4 -11 11 -46 15 -76z m1652 35
c8 -19 12 -38 9 -40 -3 -3 -10 6 -16 21 -5 15 -15 37 -21 48 -8 16 -8 19 1 13
7 -4 19 -23 27 -42z m-1737 -175 c-14 -47 -35 -52 -25 -5 3 17 9 50 11 72 10
81 19 93 22 30 2 -33 -2 -77 -8 -97z m-82 48 c-4 -48 -52 -155 -64 -143 -3 2
7 36 21 74 14 39 25 79 25 90 0 19 8 33 18 33 2 0 2 -24 0 -54z m-728 -43 c0
-43 35 -124 82 -189 17 -24 29 -46 26 -49 -12 -12 -61 41 -87 94 -31 60 -52
181 -32 181 6 0 11 -17 11 -37z m2574 -50 c10 -61 7 -98 -9 -119 -13 -17 -14
-11 -15 69 0 89 13 116 24 50z m-1032 -39 c3 -27 7 -78 7 -114 1 -63 1 -64
-15 -41 -23 32 -34 216 -13 209 8 -3 17 -25 21 -54z m-414 -74 c80 -56 112
-92 160 -179 54 -96 98 -134 204 -176 49 -19 78 -39 106 -70 41 -47 68 -92 60
-101 -3 -3 -39 16 -79 42 -40 26 -105 61 -144 77 -38 17 -79 36 -90 43 -27 18
-215 79 -300 99 -52 12 -99 15 -185 10 -151 -7 -224 -21 -271 -52 -21 -14 -45
-23 -54 -19 -18 6 -20 39 -3 69 19 37 151 156 199 180 25 13 59 33 75 44 16
11 53 29 82 39 28 10 52 23 52 28 0 5 32 6 71 4 59 -5 78 -11 117 -38z m136
-5 c11 -8 17 -17 14 -20 -3 -3 -16 3 -29 14 -27 23 -14 28 15 6z m184 -107
c11 -40 0 -51 -18 -19 -13 24 -14 79 -1 66 5 -6 14 -27 19 -47z m1032 -18 c-7
-16 -19 -31 -27 -34 -8 -3 -13 -3 -11 2 1 4 12 30 23 57 16 41 21 46 23 27 2
-13 -2 -37 -8 -52z m99 -69 c-30 -72 -131 -155 -209 -175 l-25 -7 25 18 c60
44 119 101 169 166 60 77 74 76 40 -2z m-2419 13 c25 -8 69 -14 98 -14 28 0
52 -4 52 -10 0 -14 -114 -13 -161 2 -21 6 -47 20 -56 31 -17 20 -17 20 2 13
11 -4 40 -14 65 -22z m1474 10 c4 -10 1 -14 -6 -12 -15 5 -23 28 -10 28 5 0
13 -7 16 -16z m-203 -45 c35 -27 52 -59 32 -59 -10 0 -83 72 -83 82 0 14 11 9
51 -23z m929 -63 c0 -9 -108 -66 -126 -66 -28 0 -3 20 58 46 53 23 68 28 68
20z m-551 -50 c34 -22 56 -28 171 -41 67 -8 87 -15 69 -25 -8 -5 -61 -5 -118
0 -106 10 -144 24 -211 81 l-25 21 39 -6 c21 -3 55 -16 75 -30z m-751 -7 c118
-23 192 -47 260 -83 26 -14 86 -43 133 -65 92 -43 137 -78 83 -66 -88 20 -211
59 -234 74 -35 25 -78 40 -128 46 -23 3 -53 12 -66 20 -13 9 -28 15 -32 14 -5
-2 -28 3 -51 9 -31 9 -47 10 -67 1 -20 -9 -32 -9 -58 2 -19 8 -68 14 -118 14
-71 0 -85 3 -88 17 -4 21 8 28 66 38 63 11 175 3 300 -21z m-411 -55 c-3 -3
-12 -4 -19 -1 -8 3 -5 6 6 6 11 1 17 -2 13 -5z m-325 -45 c-38 -34 -48 -32
-38 6 5 20 12 25 39 25 l32 -1 -33 -30z m2072 1 c-12 -12 -93 -27 -82 -15 4 4
22 11 40 15 47 11 53 11 42 0z m-1974 -62 c0 -5 -14 -23 -31 -39 -34 -32 -31
-49 9 -49 38 0 87 33 103 69 9 19 21 31 33 31 17 0 18 -2 4 -17 -9 -10 -19
-28 -22 -41 -4 -12 -22 -33 -39 -47 -18 -13 -100 -91 -184 -173 -144 -141
-173 -160 -173 -117 0 14 55 79 123 147 52 52 61 92 29 121 -17 16 -21 15 -65
-13 -26 -16 -64 -38 -84 -48 -21 -11 -65 -34 -98 -52 -45 -25 -56 -28 -42 -13
9 11 41 33 70 48 28 16 84 50 123 76 40 25 101 61 135 79 35 17 70 38 78 45
15 15 31 11 31 -7z m1822 10 c-17 -8 -26 -8 -34 0 -9 9 -4 12 23 11 32 0 33
-1 11 -11z m-291 -19 c9 -5 38 -10 64 -13 26 -2 52 -9 59 -16 8 -9 3 -10 -24
-6 -19 3 -62 8 -95 11 -81 8 -115 15 -115 24 0 11 91 11 111 0z m449 -100 c-9
-16 -19 -19 -47 -17 -53 4 -57 30 -4 27 22 -2 44 0 47 4 13 13 15 7 4 -14z
m-1720 7 c0 -3 -4 -8 -10 -11 -5 -3 -10 -1 -10 4 0 6 5 11 10 11 6 0 10 -2 10
-4z m-32 -193 c-6 -16 -18 -35 -25 -43 -11 -12 -13 -12 -13 6 0 22 26 64 40
64 5 0 4 -12 -2 -27z m398 -37 c4 -16 0 -34 -10 -48 -16 -22 -16 -21 -16 25 0
50 15 64 26 23z m-306 -52 c0 -14 -4 -23 -10 -19 -5 3 -10 15 -10 26 0 10 5
19 10 19 6 0 10 -12 10 -26z m288 -240 c2 -52 0 -74 -7 -69 -6 3 -10 23 -9 43
0 20 -3 57 -7 82 -6 37 -5 43 6 33 7 -8 14 -44 17 -89z m303 -11 c17 -45 -23
-164 -48 -140 -5 6 27 167 34 167 2 0 8 -12 14 -27z m-468 -218 c6 -66 5 -101
-2 -108 -22 -22 -36 13 -40 99 -3 91 2 118 22 112 8 -3 15 -39 20 -103z m353
69 c-8 -21 -49 -73 -58 -73 -16 -2 -7 37 13 63 23 29 55 36 45 10z m-160 -171
c1 -16 6 -50 10 -77 6 -39 4 -48 -7 -44 -10 3 -15 27 -17 83 -2 44 0 76 4 72
4 -4 8 -19 10 -34z"/>
<path d="M2143 7822 c-48 -7 -134 -133 -104 -151 10 -7 11 -13 1 -30 -9 -18
-8 -28 7 -54 23 -39 66 -55 126 -47 37 4 51 13 86 53 39 45 41 52 38 100 -5
68 -24 106 -56 113 -14 3 -37 9 -51 13 -14 4 -35 5 -47 3z"/>
<path d="M4080 7693 c-40 -15 -75 -51 -95 -97 -20 -46 -21 -56 -11 -108 14
-70 24 -80 78 -85 122 -11 128 -10 164 30 43 46 47 85 18 164 -12 34 -26 48
-68 73 -55 31 -60 32 -86 23z"/>
<path d="M3011 7334 c-49 -41 -40 -112 17 -132 32 -11 56 -2 72 29 8 14 6 29
-8 62 -29 65 -44 73 -81 41z"/>
<path d="M4244 8215 c-10 -24 11 -39 52 -37 20 2 45 0 57 -4 20 -6 20 -7 -6
-21 -47 -24 -28 -48 52 -63 28 -5 59 -14 69 -19 29 -15 213 -35 416 -44 72 -3
101 9 89 39 -10 27 -51 34 -227 40 -181 6 -240 19 -250 58 -2 10 -9 16 -14 12
-5 -3 -26 7 -48 22 -31 21 -53 27 -111 30 -61 4 -74 1 -79 -13z"/>
<path d="M2862 7988 c-18 -18 -15 -34 22 -133 30 -77 38 -90 58 -90 33 0 34
27 5 104 -14 36 -29 79 -34 96 -9 33 -31 43 -51 23z"/>
<path d="M4636 7984 c-5 -12 -13 -14 -32 -10 -84 21 -86 21 -82 -10 2 -22 12
-34 43 -49 l40 -20 -35 -5 c-27 -4 -36 -10 -38 -27 -2 -16 3 -24 20 -28 13 -3
32 -19 43 -36 13 -19 39 -36 73 -49 29 -11 75 -31 102 -45 27 -14 60 -25 72
-25 32 0 68 27 68 51 0 25 -45 47 -68 33 -13 -8 -44 -2 -127 26 l-110 37 63 5
c68 5 82 15 82 58 0 17 -15 39 -45 68 -49 46 -60 50 -69 26z"/>
<path d="M3076 7891 c-14 -22 -36 -142 -36 -194 0 -55 1 -58 22 -55 25 3 30
18 48 145 7 46 10 89 6 98 -6 16 -32 20 -40 6z"/>
<path d="M3160 7718 c-19 -91 -22 -132 -11 -160 17 -45 38 -35 49 25 36 188
36 187 -3 187 -20 0 -25 -7 -35 -52z"/>
<path d="M2947 7693 c-13 -12 -7 -60 8 -73 26 -21 45 -4 45 40 0 35 -3 40 -23
40 -13 0 -27 -3 -30 -7z"/>
<path d="M4675 7690 c-21 -35 37 -80 137 -105 34 -9 89 -27 122 -40 34 -13 93
-35 133 -50 45 -17 77 -35 87 -51 21 -32 53 -31 68 1 10 22 9 29 -8 45 -10 10
-116 54 -234 98 -118 45 -232 88 -252 96 -44 19 -45 19 -53 6z"/>
<path d="M4663 7579 c-48 -25 -25 -90 46 -131 23 -13 41 -31 41 -40 0 -22 -9
-22 -34 -3 -25 19 -52 4 -61 -35 -10 -45 1 -65 46 -85 22 -10 50 -32 61 -49
12 -17 22 -32 24 -34 2 -4 226 -61 254 -65 39 -6 32 -17 -11 -17 -24 0 -93 14
-154 30 -102 27 -111 28 -123 13 -19 -26 -1 -36 115 -72 149 -46 255 -42 283
9 25 46 -13 87 -87 94 -28 3 -70 10 -92 15 -23 6 -59 16 -82 22 -34 9 -43 17
-59 53 -10 24 -24 46 -31 48 -9 3 -6 11 9 26 12 12 22 32 22 44 0 17 3 19 12
10 20 -20 86 -15 98 8 20 38 2 64 -79 112 -43 26 -86 47 -97 47 -10 0 -32 3
-49 5 -16 3 -40 1 -52 -5z m180 -106 c-15 -5 -65 20 -83 42 -8 10 6 6 41 -11
29 -15 48 -29 42 -31z"/>
<path d="M1895 7060 c-11 -5 -50 -9 -87 -9 -56 -1 -71 -5 -95 -25 -22 -19 -25
-27 -16 -37 24 -24 313 26 313 55 0 22 -76 33 -115 16z"/>
<path d="M4807 7043 c-15 -15 -5 -71 18 -105 24 -35 31 -58 20 -58 -11 0 -71
33 -102 57 -17 13 -47 27 -67 30 -32 5 -36 3 -36 -15 0 -11 13 -30 30 -42 16
-12 53 -41 82 -66 28 -24 56 -44 62 -44 15 0 150 -86 170 -109 17 -19 17 -21
2 -21 -9 0 -33 7 -53 15 -20 8 -38 13 -40 11 -9 -9 44 -36 102 -51 51 -13 61
-13 73 -1 23 23 6 63 -37 90 -29 19 -134 77 -149 82 -1 1 4 14 12 29 9 16 12
40 9 56 l-5 29 32 -17 c40 -19 63 -9 68 30 3 21 -4 31 -35 50 -69 43 -141 66
-156 50z"/>
<path d="M4690 6796 c0 -17 19 -41 62 -80 33 -31 58 -59 55 -62 -3 -4 -35 7
-70 24 -94 46 -167 73 -178 67 -19 -13 -7 -53 41 -135 76 -129 65 -138 -37
-31 -49 50 -96 91 -105 91 -24 0 -23 -30 3 -80 26 -50 20 -59 -20 -29 -17 12
-34 20 -37 16 -11 -11 17 -86 63 -166 23 -41 47 -88 53 -105 22 -66 -82 67
-144 184 -37 70 -68 116 -78 118 -27 5 -22 -32 13 -102 l31 -61 -35 34 c-20
18 -51 56 -69 82 -18 27 -38 49 -45 49 -35 0 -12 -70 45 -138 50 -61 92 -124
92 -139 0 -15 -66 31 -155 106 -98 84 -116 58 -37 -55 27 -38 70 -116 97 -174
27 -58 66 -132 86 -164 l38 -60 -31 -19 c-40 -24 -37 -39 50 -225 67 -142 68
-147 53 -173 -14 -25 -14 -29 3 -48 23 -25 39 -27 56 -6 22 27 -5 128 -69 262
-38 78 -55 123 -47 123 7 0 40 -32 72 -72 66 -80 142 -169 180 -210 33 -37
108 -54 206 -49 26 1 39 34 29 68 -5 15 -12 47 -14 70 l-5 42 36 -18 c36 -18
80 -58 71 -64 -2 -2 -17 -11 -32 -20 -37 -23 -26 -37 29 -37 32 0 67 11 124
40 44 22 84 40 90 40 6 0 -6 -21 -27 -47 -33 -40 -38 -53 -37 -95 0 -36 -3
-47 -12 -44 -8 3 -34 -4 -60 -15 -29 -13 -77 -23 -128 -26 -83 -5 -126 -22
-126 -49 0 -22 25 -27 52 -11 13 9 47 15 79 15 31 0 85 8 119 18 53 15 65 23
86 56 42 66 60 79 91 67 14 -5 40 -7 57 -3 56 12 166 85 218 146 58 66 78 73
78 27 0 -36 -59 -102 -192 -216 -88 -74 -113 -113 -89 -136 16 -16 223 -10
233 6 6 9 8 9 8 0 0 -9 10 -11 33 -6 48 9 60 26 15 21 -21 -2 -38 0 -38 4 0 5
27 26 61 46 34 20 92 61 131 91 38 29 68 47 67 40 -6 -28 12 -59 34 -59 11 0
50 18 86 40 72 43 148 73 162 64 19 -11 8 -31 -27 -48 -101 -48 -186 -138
-157 -167 13 -13 115 28 183 71 26 16 53 30 61 30 8 0 23 7 33 15 11 8 38 15
60 15 l41 0 -38 -31 c-21 -17 -37 -39 -37 -51 0 -19 4 -20 46 -14 42 5 146 55
159 76 8 13 -6 40 -20 40 -13 0 -17 12 -44 140 -14 64 -19 75 -38 78 -29 4
-29 16 1 140 18 75 33 110 59 144 19 25 39 65 45 89 13 53 71 151 115 197 62
64 213 132 294 132 31 0 33 -2 27 -27 -4 -16 -24 -57 -44 -93 -21 -36 -43 -85
-50 -110 -11 -41 -26 -70 -117 -211 -18 -28 -33 -57 -33 -65 0 -8 -25 -66 -55
-129 -58 -121 -66 -159 -38 -169 19 -8 103 46 176 113 l47 44 0 -31 c0 -17 -7
-66 -15 -109 -8 -43 -15 -94 -15 -113 0 -44 -31 -112 -70 -157 -33 -37 -35
-34 -18 31 11 40 10 47 -7 66 -33 36 -90 27 -220 -35 -63 -30 -116 -55 -119
-55 -2 0 -39 -16 -82 -36 -42 -19 -101 -40 -130 -46 -30 -6 -58 -16 -64 -23
-16 -19 -1 -45 26 -45 44 0 194 59 285 111 77 45 152 77 237 103 30 10 29 -9
-4 -67 -14 -25 -24 -52 -22 -59 9 -41 -75 -118 -129 -118 -10 0 -30 -6 -45
-14 -14 -8 -42 -19 -61 -25 -37 -13 -54 -38 -38 -54 7 -7 37 -1 93 18 124 42
189 78 264 145 38 33 72 60 76 60 9 0 54 87 74 142 15 44 181 298 194 298 5 0
25 14 43 30 40 35 47 37 47 11 0 -10 -18 -39 -40 -64 -41 -46 -80 -111 -153
-250 -32 -61 -39 -82 -30 -95 18 -29 37 -19 75 39 20 30 69 82 109 115 39 32
121 107 183 166 153 146 267 198 432 198 89 0 106 -13 81 -65 -9 -19 -22 -35
-28 -35 -5 0 -27 -12 -47 -27 -20 -16 -33 -22 -28 -15 4 7 2 12 -4 12 -7 0 -9
-7 -6 -16 3 -9 6 -17 6 -19 0 -2 14 0 30 5 17 5 30 6 30 2 0 -9 -63 -60 -125
-102 -27 -18 -63 -44 -78 -57 -16 -12 -108 -70 -206 -129 -98 -58 -195 -119
-215 -136 -37 -30 -46 -64 -24 -86 20 -20 39 -14 98 28 31 21 81 48 110 60 29
12 65 29 79 39 14 10 61 37 104 60 44 23 124 70 179 103 55 33 101 58 103 56
2 -2 -3 -17 -10 -34 -23 -55 -172 -171 -402 -314 -43 -26 -53 -37 -53 -59 0
-16 9 -36 19 -45 18 -16 29 -17 131 -6 61 7 112 11 115 9 2 -3 -41 -31 -95
-63 -109 -65 -140 -89 -140 -111 0 -30 47 -14 125 41 135 94 280 152 292 117
3 -7 -4 -16 -14 -20 -10 -3 -72 -47 -138 -96 -66 -50 -138 -100 -160 -112 -41
-21 -41 -21 -75 -2 -19 11 -68 26 -108 34 -72 15 -75 15 -103 -6 -15 -11 -32
-21 -36 -21 -10 -1 -53 -36 -53 -44 0 -11 45 -6 120 14 100 26 106 26 81 -6
-24 -31 -27 -57 -8 -73 11 -8 28 -6 72 9 l57 20 -4 -33 c-3 -17 -9 -40 -13
-51 -7 -17 -6 -17 21 -3 16 8 38 25 49 37 25 27 67 50 95 50 35 0 22 -14 -53
-56 -118 -66 -127 -70 -136 -55 -6 9 -18 1 -43 -28 -47 -55 -97 -60 -122 -13
-10 20 -42 41 -115 76 -161 77 -281 75 -281 -5 0 -82 42 -99 253 -105 88 -3
168 -9 178 -15 10 -5 29 -9 43 -9 14 0 27 -4 30 -9 3 -5 41 11 83 35 43 24 82
44 87 44 18 0 -35 -48 -117 -106 -107 -76 -131 -104 -87 -104 23 0 95 34 105
50 7 12 25 13 25 2 0 -4 -18 -29 -40 -56 -22 -26 -40 -53 -40 -60 0 -22 65
-49 100 -41 20 4 67 -1 128 -15 113 -25 232 -59 232 -65 0 -3 -86 -2 -190 2
-184 6 -191 5 -210 -15 -34 -37 -8 -43 174 -43 154 1 225 -6 269 -24 14 -6 20
-2 24 14 8 32 40 26 81 -15 30 -30 45 -37 91 -41 52 -5 81 -17 81 -32 0 -13
-58 -41 -85 -41 -35 0 -85 27 -85 45 0 12 -15 15 -82 13 -46 -1 -137 6 -203
15 -66 9 -123 17 -127 17 -5 0 -7 3 -7 8 5 27 -14 30 -131 19 -19 -1 -26 3
-28 21 -2 12 -7 22 -12 22 -20 0 -59 -20 -78 -40 -19 -20 -19 -20 -14 104 6
149 -4 186 -49 186 -34 0 -45 -15 -25 -35 25 -26 35 -190 12 -212 -13 -13 -18
9 -27 111 -9 110 -35 189 -66 200 -9 4 -17 5 -18 4 -2 -2 3 -37 10 -78 8 -41
14 -84 13 -95 l0 -20 -5 20 c-3 11 -16 57 -29 101 -21 71 -28 82 -50 87 -32 6
-35 -1 -17 -48 8 -22 27 -78 44 -124 16 -47 38 -103 48 -125 30 -64 35 -86 18
-86 -19 0 -87 50 -119 89 -25 29 -117 81 -145 81 -7 0 -17 -9 -23 -20 -6 -11
-20 -20 -31 -20 -31 0 -59 -19 -59 -40 0 -33 37 -175 54 -209 9 -17 39 -66 66
-108 44 -66 62 -113 45 -113 -20 0 -69 37 -123 94 -34 36 -69 66 -77 66 -18 0
-20 -41 -4 -57 6 -6 8 -16 4 -23 -9 -15 -46 19 -87 80 -48 70 -78 89 -78 48 0
-23 23 -66 71 -135 70 -100 158 -255 178 -313 13 -36 36 -94 52 -129 33 -72
35 -83 15 -75 -16 6 -197 339 -215 396 -7 20 -19 42 -27 49 -9 7 -48 59 -87
116 -71 103 -97 124 -97 79 0 -25 30 -74 91 -147 22 -26 39 -50 39 -54 0 -4
-22 9 -49 28 -69 50 -132 80 -142 70 -10 -10 122 -163 150 -175 9 -4 37 -7 62
-7 l45 -1 19 -62 c10 -34 42 -107 71 -162 54 -106 72 -160 55 -170 -16 -10
-79 52 -133 132 -27 41 -72 98 -98 127 -27 30 -54 63 -60 74 -14 27 -46 27
-60 1 -12 -22 0 -51 47 -108 l27 -34 -24 4 c-44 6 -35 -33 44 -188 80 -160 94
-194 77 -194 -6 0 -24 27 -41 60 -34 68 -146 242 -162 252 -6 3 -17 4 -25 1
-15 -6 -18 -39 -4 -47 16 -10 83 -136 78 -149 -2 -6 -25 17 -50 53 -26 36 -61
82 -78 103 -51 63 -87 41 -50 -32 12 -22 21 -45 21 -51 0 -34 -166 115 -242
217 -51 70 -108 85 -108 28 0 -38 -17 -38 -40 0 -31 50 -20 59 64 53 39 -3 77
-3 84 -1 6 3 12 19 12 37 0 42 5 46 45 35 20 -6 42 -6 59 1 21 8 27 6 36 -10
5 -10 10 -32 10 -48 0 -16 8 -36 17 -43 15 -13 16 -12 11 9 -4 12 -2 20 3 16
5 -3 9 -15 9 -28 0 -12 11 -33 25 -46 21 -19 30 -22 43 -14 23 15 26 39 8 74
-8 17 -11 28 -6 25 17 -11 19 28 3 56 -13 22 -15 31 -5 41 7 7 12 28 12 48 0
30 -9 45 -55 93 -57 59 -72 88 -32 63 12 -7 41 -16 65 -19 34 -4 44 -2 52 13
17 33 11 75 -19 122 l-29 46 23 22 c13 12 29 19 35 15 7 -4 69 -11 138 -15
141 -9 152 -5 152 54 0 25 -11 42 -56 83 -35 33 -54 58 -51 67 3 8 -1 17 -9
20 -8 3 -14 10 -14 17 0 6 7 9 15 5 8 -3 15 -1 15 3 0 10 -24 21 -48 21 -9 1
-30 7 -47 15 -18 9 -21 13 -8 9 12 -2 38 2 58 11 21 8 61 15 89 16 28 0 67 5
86 12 29 10 36 18 38 43 5 50 -34 87 -113 109 -36 9 -74 15 -85 12 -11 -3 -20
-1 -20 3 0 13 -72 9 -109 -6 -18 -8 -37 -11 -43 -8 -5 3 -25 3 -44 0 -27 -6
-34 -12 -34 -29 0 -31 18 -47 53 -47 52 0 157 -23 157 -35 0 -6 -7 -21 -16
-33 -13 -19 -24 -22 -75 -22 -57 0 -59 -1 -59 -25 0 -19 9 -31 31 -43 49 -27
79 -52 76 -65 -1 -6 4 -11 12 -12 8 0 16 -6 19 -14 3 -8 0 -11 -7 -7 -6 4 -11
3 -11 -2 0 -11 51 -58 73 -65 9 -4 17 -14 17 -23 0 -15 -10 -16 -92 -10 -108
7 -113 10 -238 129 -51 48 -98 87 -105 87 -7 0 -18 -7 -26 -16 -11 -13 0 -29
85 -112 l98 -97 -32 -3 c-62 -6 -233 57 -275 103 -27 29 -182 84 -257 92 -59
6 -60 6 -56 -18 3 -21 10 -25 63 -31 92 -12 170 -37 156 -51 -6 -6 -11 -26
-11 -45 0 -42 36 -79 184 -192 116 -89 202 -191 185 -221 -11 -22 -6 -21 -89
-24 -41 -2 -90 4 -133 15 -71 20 -102 43 -280 210 -65 62 -69 64 -83 46 -22
-31 -17 -42 34 -82 63 -51 151 -135 163 -157 9 -17 7 -18 -28 -11 -60 11 -133
42 -199 85 -67 43 -93 48 -118 20 -22 -24 -20 -25 136 -100 100 -48 131 -67
143 -90 8 -17 15 -32 15 -34 0 -2 -29 2 -64 8 -51 10 -70 10 -95 -1 -46 -19
-69 -13 -95 26 -112 168 -202 311 -234 372 -31 61 -42 73 -62 73 -47 0 -37
-41 38 -155 89 -134 152 -243 152 -259 0 -10 -7 -9 -27 4 -49 31 -74 58 -62
66 6 3 -22 17 -62 29 -145 43 -165 50 -209 81 -25 16 -61 38 -80 49 -60 31
-212 189 -278 288 -34 51 -62 99 -62 105 0 6 28 -16 63 -49 34 -34 80 -73 102
-88 59 -39 115 -34 115 10 0 20 -5 24 -33 24 -37 0 -99 36 -162 95 -22 20 -56
49 -75 63 -19 15 -50 42 -69 61 l-35 34 -15 -31 c-14 -31 -13 -33 33 -109 80
-130 156 -230 225 -296 119 -114 126 -122 107 -125 -53 -11 -187 106 -256 223
-58 99 -97 79 -46 -23 23 -46 87 -113 117 -125 11 -4 10 -8 -5 -20 -18 -13
-19 -19 -7 -72 7 -31 10 -59 8 -62 -3 -3 -26 16 -51 42 -50 51 -132 203 -141
263 -13 79 -14 82 -40 82 -22 0 -25 -4 -25 -35 0 -49 40 -151 99 -254 28 -49
51 -91 51 -95 0 -19 -66 32 -110 85 -46 55 -50 65 -49 107 1 26 -5 61 -14 77
-8 17 -20 56 -26 88 -12 67 -17 77 -37 77 -16 0 -20 -73 -5 -112 19 -52 22
-78 8 -78 -39 0 -126 166 -106 201 4 8 9 49 10 91 4 84 -5 104 -40 93 -21 -6
-26 -23 -22 -82 2 -18 -2 -33 -8 -33 -6 0 -11 7 -11 15 0 20 -36 19 -44 -1 -9
-24 -8 -30 17 -61 12 -15 31 -59 41 -98 18 -73 45 -140 102 -262 26 -55 54
-92 117 -153 89 -89 132 -118 239 -161 79 -33 123 -61 139 -91 10 -19 9 -20
-23 -13 -18 4 -77 27 -130 52 -105 48 -160 54 -166 20 -5 -26 17 -50 33 -37 9
8 47 -3 136 -39 68 -27 150 -55 183 -62 55 -13 61 -17 99 -74 47 -69 221 -251
287 -299 61 -45 110 -60 154 -47 l36 9 0 -41 c0 -26 10 -58 25 -84 27 -48 25
-49 -36 -28 -24 9 -55 13 -67 10 -21 -5 -47 17 -181 152 -86 87 -189 202 -229
255 -80 107 -89 116 -98 95 -8 -22 27 -84 101 -183 68 -90 101 -144 88 -144
-32 0 -195 156 -253 240 -50 73 -64 85 -79 66 -10 -11 -6 -28 19 -82 54 -119
39 -124 -57 -16 -158 176 -308 382 -362 496 -23 48 -37 66 -52 66 -78 0 111
-295 384 -600 88 -98 88 -98 144 -146 54 -46 115 -164 84 -164 -5 0 -43 25
-86 55 -42 30 -80 55 -85 55 -5 0 -16 -12 -23 -26 l-14 -27 -17 48 c-21 63
-21 62 14 70 17 4 30 10 30 15 0 15 -61 60 -83 60 -36 1 -64 22 -143 110 -196
215 -338 456 -394 668 -11 42 -35 57 -46 28 -8 -20 38 -168 87 -278 21 -50 72
-141 113 -202 66 -100 101 -143 246 -308 l41 -48 -33 7 c-18 3 -75 26 -126 49
-75 35 -109 58 -168 116 -41 40 -87 91 -102 115 -28 44 -38 48 -56 21 -7 -12
-3 -25 17 -51 32 -42 33 -47 9 -47 -76 0 -49 -140 73 -377 40 -79 69 -143 63
-143 -15 0 -190 182 -245 255 -25 33 -54 78 -65 100 -24 48 -57 85 -75 85 -9
0 -13 -14 -13 -42 l0 -43 -88 93 c-96 101 -115 109 -181 76 -66 -33 -61 -93
12 -130 22 -12 27 -19 17 -22 -37 -11 -51 -35 -45 -74 4 -21 4 -38 0 -38 -37
0 -90 74 -141 196 -42 101 -114 325 -139 429 -9 39 -18 77 -20 85 -5 16 0 10
50 -69 66 -103 156 -190 243 -235 18 -9 78 -33 133 -52 l100 -35 30 22 c39 27
51 17 79 -66 25 -75 39 -90 65 -71 17 12 18 18 6 57 -7 24 -28 72 -47 106 -40
72 -98 221 -122 313 -14 53 -21 66 -40 68 -19 3 -22 -1 -22 -29 0 -32 69 -249
96 -301 13 -25 13 -29 -1 -34 -35 -14 -66 8 -135 96 -92 117 -300 313 -365
345 -58 29 -109 26 -126 -7 -11 -20 -7 -110 6 -161 5 -18 1 -48 -10 -83 -16
-51 -16 -62 -2 -152 16 -103 9 -135 -19 -97 -54 71 -123 243 -171 430 -14 55
-29 104 -34 109 -4 5 -19 6 -33 2 -26 -6 -35 -33 -17 -51 6 -6 35 -84 67 -175
31 -91 62 -177 70 -192 18 -35 18 -38 -3 -38 -24 0 -146 120 -162 158 -15 36
-64 61 -85 43 -16 -13 -26 12 -26 70 0 33 -14 59 -32 59 -4 0 -11 -18 -14 -40
-5 -28 -12 -40 -23 -40 -9 0 -25 -14 -35 -32 -30 -50 -136 -153 -136 -131 0
22 34 118 57 158 10 17 47 117 84 224 71 204 73 218 28 241 -32 18 -51 4 -108
-75 -29 -42 -62 -80 -72 -86 -14 -7 -19 -21 -19 -50 0 -36 -7 -48 -57 -100
-31 -33 -65 -76 -75 -97 -22 -44 -19 -22 10 83 11 39 25 102 31 140 6 39 18
117 27 173 9 57 30 147 46 200 39 130 40 136 4 140 -29 4 -29 4 -6 15 15 8 29
30 40 62 9 28 36 82 60 120 34 55 44 80 44 115 1 43 5 49 82 126 69 69 90 98
143 203 34 67 61 130 59 139 -2 10 -13 17 -27 17 -20 0 -29 -12 -55 -70 -53
-120 -105 -203 -168 -270 -33 -36 -68 -65 -78 -65 -10 0 -24 -7 -31 -17 -26
-31 -198 -133 -225 -133 -14 0 2 36 39 86 24 33 73 104 109 159 36 55 87 122
114 148 43 44 46 50 31 64 -8 9 -22 13 -31 10 -18 -7 -93 -108 -206 -277 -46
-69 -90 -130 -98 -137 -7 -6 -33 -45 -55 -85 -40 -69 -77 -100 -77 -63 0 14
54 131 107 230 9 17 27 52 41 78 33 62 129 174 222 260 56 51 71 70 62 79 -13
13 -7 17 -132 -88 -47 -39 -101 -89 -120 -110 -20 -22 -47 -44 -60 -50 -17 -8
-29 -26 -38 -55 -18 -61 -74 -134 -129 -170 -44 -27 -103 -39 -103 -21 0 11
97 163 104 163 14 0 82 32 88 43 4 6 8 19 8 29 0 21 45 63 128 119 60 42 80
67 67 88 -10 17 -41 11 -60 -10 l-19 -21 -15 28 -15 28 -6 -43 c-7 -48 -15
-57 -143 -148 -43 -31 -81 -53 -84 -50 -18 17 18 70 105 153 122 118 187 168
265 207 l62 31 2 63 c1 57 -1 63 -22 68 -15 4 -42 -5 -80 -26 -56 -31 -117
-53 -541 -194 -252 -83 -305 -112 -336 -184 -56 -126 55 -234 207 -202 38 8
61 20 86 46 76 80 302 251 357 271 24 9 -29 -47 -96 -99 -29 -24 -62 -60 -73
-80 -23 -44 -25 -101 -4 -118 21 -17 19 -35 -9 -83 -16 -28 -25 -61 -28 -102
l-3 -60 32 -3 c20 -2 50 6 79 22 26 14 50 24 52 22 5 -6 -95 -105 -136 -136
-85 -62 -317 -351 -375 -466 -47 -92 -45 -154 4 -154 19 0 24 13 32 87 11 98
161 302 362 494 l93 90 -5 -43 c-3 -24 -17 -56 -30 -72 -32 -38 -52 -80 -97
-201 l-37 -100 -39 3 c-42 4 -48 -4 -30 -39 14 -25 40 -24 102 6 28 14 53 25
54 25 2 0 -11 -22 -27 -49 -57 -91 -58 -163 -4 -177 48 -12 111 57 173 188 26
56 32 46 16 -24 -26 -115 -44 -155 -120 -270 -151 -229 -214 -392 -214 -558 0
-74 3 -90 20 -105 11 -10 26 -15 36 -11 14 5 15 13 8 44 -24 107 0 260 61 387
39 81 150 255 163 255 5 0 4 -33 -3 -72 -7 -40 -16 -114 -19 -165 -7 -87 -6
-92 14 -103 24 -13 45 -1 55 29 3 10 20 24 37 32 27 11 34 21 40 55 3 23 16
56 27 75 24 39 25 38 11 -11 -11 -36 -1 -79 26 -110 11 -13 8 -26 -16 -76 -44
-91 -63 -171 -47 -203 17 -37 56 -39 96 -5 18 14 35 24 38 20 3 -3 -2 -39 -11
-80 -14 -58 -15 -79 -6 -95 20 -38 61 -46 131 -25 13 4 17 -7 22 -56 10 -118
116 -212 170 -152 27 29 21 45 -13 37 -23 -5 -35 -1 -54 18 -41 41 -48 89 -30
191 l17 89 23 -92 c32 -128 68 -191 119 -210 22 -8 41 -15 43 -16 1 -1 9 -39
17 -84 8 -45 17 -87 21 -94 37 -66 106 -78 154 -27 l28 30 35 -17 c33 -18 34
-19 46 -118 7 -54 19 -115 27 -133 33 -80 156 -192 211 -192 36 0 28 15 -37
65 -82 63 -90 80 -52 114 34 30 55 117 52 217 -4 137 5 135 44 -11 36 -134 44
-149 84 -153 36 -4 60 11 71 41 6 15 13 6 35 -43 16 -34 30 -80 32 -103 5 -52
20 -69 57 -65 38 4 57 31 40 56 -30 41 -85 157 -108 226 -27 81 -30 96 -16 96
13 0 121 -175 134 -216 8 -26 20 -39 44 -49 26 -11 33 -20 33 -42 0 -34 16
-53 46 -53 21 0 21 -2 20 -174 -1 -96 -4 -177 -8 -181 -6 -7 -5 -13 8 -53 10
-31 6 -321 -6 -379 -7 -32 -19 -69 -27 -82 -13 -21 -14 -46 -2 -91 3 -12 -8
-15 -57 -16 -33 -1 -76 -6 -95 -12 -19 -6 -77 -14 -129 -17 -52 -4 -97 -9 -98
-10 -2 -2 -28 5 -57 15 -86 29 -250 26 -282 -6 -7 -7 -42 -22 -78 -34 -36 -12
-65 -26 -65 -31 0 -5 -11 -9 -25 -9 -17 0 -43 -16 -73 -44 -39 -36 -56 -44
-102 -50 -30 -4 -68 -16 -85 -26 -17 -10 -73 -29 -125 -40 -180 -41 -245 -58
-300 -78 -47 -18 -333 -109 -410 -130 -18 -5 -26 -15 -28 -36 -3 -26 -2 -28
25 -23 15 3 112 35 215 71 138 48 188 61 188 51 0 -13 33 -38 41 -31 2 2 24 6
49 10 61 9 43 -6 -45 -39 -39 -15 -76 -32 -83 -38 -8 -7 -55 -32 -105 -57 -71
-35 -93 -50 -95 -67 -4 -29 16 -30 68 -3 36 18 109 40 295 89 39 11 121 33
183 51 129 36 185 33 87 -5 -136 -52 -164 -64 -245 -107 -82 -44 -104 -68 -82
-90 7 -7 32 3 77 31 107 68 276 139 343 146 15 1 67 10 115 19 48 10 93 16 99
14 7 -3 -73 -48 -175 -102 -103 -54 -192 -107 -198 -117 -16 -32 9 -24 152 47
255 126 486 216 585 228 l49 7 -40 -17 c-22 -8 -58 -22 -80 -30 -82 -30 -568
-280 -603 -311 -30 -25 -35 -34 -25 -44 11 -11 20 -9 50 9 74 44 229 114 313
142 47 16 125 46 174 68 82 37 116 43 116 21 0 -9 -90 -64 -265 -159 -91 -50
-121 -71 -123 -88 -5 -36 23 -36 75 1 71 51 299 178 329 183 33 6 74 21 199
74 135 57 217 84 368 125 202 55 201 42 -3 -26 -167 -56 -384 -161 -447 -218
-38 -33 -27 -131 15 -131 10 0 22 4 28 9 9 9 419 191 429 191 14 0 354 155
390 178 22 14 56 35 75 48 19 12 70 29 112 38 43 8 101 29 130 45 64 35 125
54 158 49 23 -3 22 -5 -16 -25 -43 -23 -208 -87 -304 -118 -100 -33 -188 -80
-265 -141 -22 -17 -89 -58 -150 -89 -180 -95 -227 -125 -281 -180 -33 -33 -67
-58 -95 -67 -32 -11 -44 -20 -44 -34 0 -34 44 -28 149 21 256 120 408 197 439
225 19 16 39 30 43 30 5 0 32 15 59 33 71 48 249 133 320 152 33 9 76 25 97
36 20 10 44 16 53 13 8 -4 21 -1 28 5 18 14 148 17 172 4 17 -10 11 -13 -40
-28 -33 -9 -68 -20 -77 -25 -14 -8 -23 -5 -39 11 -19 19 -23 20 -30 6 -10 -18
-82 -52 -181 -87 -90 -32 -185 -104 -258 -197 -34 -43 -70 -82 -80 -87 -26
-12 -29 -23 -23 -99 5 -53 9 -68 24 -72 27 -9 57 3 64 25 8 25 137 150 184
178 l38 22 -1 -42 c-1 -34 3 -43 18 -46 18 -4 178 75 292 143 53 32 104 46
104 27 0 -4 -10 -12 -22 -17 -12 -6 -26 -23 -31 -40 -5 -16 -28 -54 -50 -83
-34 -45 -40 -60 -39 -100 0 -25 -6 -58 -13 -72 -18 -36 -8 -89 20 -102 30 -13
79 19 99 65 7 18 25 43 40 56 l26 24 23 -21 c33 -31 50 -28 106 21 140 120
348 240 469 271 33 9 96 19 139 22 78 5 357 31 443 40 34 4 123 37 158 59 5 4
-85 93 -132 131 -27 21 -70 50 -95 64 -38 21 -46 30 -46 54 0 17 6 31 15 34
12 4 13 3 2 -10 -10 -12 -9 -18 3 -28 12 -10 35 -10 109 -1 52 6 107 11 123
11 l28 -1 -24 -19 c-13 -11 -32 -20 -42 -20 -14 0 -19 -7 -19 -25 0 -37 22
-40 97 -15 36 12 98 26 137 31 38 5 78 12 88 15 30 9 21 -20 -25 -88 -24 -35
-54 -89 -67 -121 -21 -52 -31 -62 -74 -84 -101 -51 -106 -52 -461 -101 -77
-11 -167 -23 -200 -26 -184 -19 -230 -27 -244 -41 -12 -12 -13 -19 -5 -33 14
-20 14 -20 174 7 137 23 210 34 375 56 61 8 143 24 183 35 39 11 104 29 144
40 39 11 80 20 90 20 10 0 26 4 36 9 9 6 55 21 102 34 47 13 137 41 200 61 63
20 118 36 122 36 3 0 -3 -18 -15 -40 -17 -30 -19 -44 -11 -57 19 -31 32 -25
67 30 49 76 73 91 184 116 54 12 118 29 143 37 25 8 82 22 127 30 71 12 86 12
117 -1 26 -11 42 -12 62 -5 40 16 118 20 105 7 -6 -6 -11 -14 -11 -18 0 -9
271 -12 305 -3 32 8 33 46 4 75 -19 19 -30 21 -83 17 -46 -4 -65 -2 -75 9 -10
11 -23 13 -50 7 -20 -4 -114 -8 -209 -9 l-172 -1 34 35 c40 42 47 60 34 84 -8
16 -18 18 -76 13 -37 -3 -134 -8 -217 -11 -130 -5 -148 -3 -132 9 10 7 45 20
78 27 70 16 87 30 64 53 -26 26 -90 18 -219 -27 -53 -18 -59 -19 -67 -4 -35
62 -70 66 -164 23 -52 -24 -92 -36 -122 -36 l-45 0 21 34 c12 18 21 43 21 55
0 39 -35 45 -192 34 l-143 -11 -22 24 c-26 28 -21 28 -120 9 -96 -18 -103 -18
-103 -2 0 19 -37 50 -49 42 -6 -3 -11 -17 -11 -30 0 -24 -17 -35 -54 -35 -13
0 -38 -11 -57 -25 -72 -52 -159 -76 -145 -38 9 22 -12 83 -30 84 -8 1 -20 2
-26 3 -9 1 -13 25 -14 76 -1 41 -4 118 -7 170 -6 123 2 218 20 236 8 8 25 14
38 14 14 0 29 8 34 18 12 23 15 155 6 262 -6 70 -5 83 6 73 20 -19 54 -16 75
8 18 20 18 21 -4 59 -18 33 -20 43 -11 64 10 20 9 30 -5 50 -9 14 -16 31 -16
38 1 7 8 1 16 -15 l15 -27 31 22 c17 13 32 19 34 13 2 -5 25 -48 52 -95 49
-88 73 -106 92 -70 10 18 7 31 -13 71 -13 27 -22 49 -20 49 3 0 16 -9 30 -20
67 -53 124 6 99 103 -6 25 -4 27 22 27 19 0 41 -12 65 -35 20 -19 42 -35 50
-35 23 0 55 -43 70 -95 12 -42 18 -50 38 -50 19 0 25 6 27 30 2 16 -2 48 -9
70 -6 22 -11 60 -10 85 1 25 -5 74 -13 110 -9 36 -16 68 -16 73 0 27 79 -24
101 -64 5 -11 16 -69 24 -130 12 -102 25 -139 46 -139 24 0 29 47 16 140 l-13
95 55 -28 c30 -15 64 -35 75 -45 13 -12 20 -13 23 -5 2 7 17 28 34 49 36 46
49 91 49 175 0 53 -4 69 -20 84 -11 10 -20 16 -21 14 0 -2 -6 -44 -12 -93 -19
-142 -41 -122 -67 59 -8 53 -8 93 -2 115 l9 35 46 -47 c40 -41 52 -48 86 -48
33 0 42 -5 63 -37 14 -21 35 -65 47 -98 73 -196 218 -337 306 -297 53 24 15
80 -46 67 -26 -6 -35 0 -87 52 -55 55 -103 135 -117 194 l-7 27 51 -25 c69
-35 155 -37 180 -6 15 18 28 22 75 21 106 -3 132 61 81 196 -30 79 -28 79 80
41 39 -13 84 -25 102 -25 32 0 53 17 37 29 -5 3 -10 23 -11 44 -2 46 -46 183
-79 249 -13 26 -20 48 -14 48 30 0 80 -33 127 -82 41 -44 55 -69 73 -126 22
-76 36 -87 75 -59 26 19 15 52 -41 123 -25 32 -56 80 -69 105 -13 26 -31 49
-40 52 -8 4 -15 15 -15 25 0 37 -41 138 -90 219 -28 46 -50 85 -50 87 0 2 49
1 109 -2 106 -5 145 0 266 34 28 7 109 30 180 50 72 19 161 49 199 66 52 23
79 29 108 25 55 -7 62 11 37 109 -12 43 -26 85 -32 93 -15 17 -35 25 -216 77
-168 48 -298 74 -376 74 l-50 1 37 32 c20 18 102 69 183 112 231 126 265 152
280 216 6 22 2 28 -25 39 -19 8 -54 11 -93 8 l-62 -6 40 19 c62 29 101 33 137
16 51 -25 74 -4 43 37 -23 30 -18 44 23 65 21 11 55 39 74 64 31 37 45 45 94
56 60 14 114 54 114 86 0 57 -104 87 -280 80 -425 -16 -511 -22 -575 -39 -27
-8 -53 -12 -57 -9 -19 11 -3 30 40 50 101 47 395 298 408 348 3 14 -1 33 -11
49 -17 25 -17 26 19 43 20 9 36 20 36 25 0 14 -40 49 -50 43 -16 -10 -12 1 19
52 43 70 45 125 6 167 -23 24 -30 26 -113 26 -165 0 -333 -64 -474 -181 -45
-38 -83 -67 -84 -66 -2 1 3 22 9 45 16 61 -4 96 -56 100 -36 3 -43 -2 -110
-70 -40 -41 -80 -89 -90 -107 -25 -47 -32 -32 -12 28 18 54 14 71 -25 106 -21
19 -22 19 -66 -4 -25 -14 -68 -46 -97 -72 -79 -73 -86 -65 -33 39 19 37 45 83
59 103 14 21 28 46 31 56 3 11 20 33 38 49 l31 29 -22 -33 c-13 -18 -20 -36
-16 -40 12 -12 45 39 44 67 -2 26 39 117 86 196 41 69 82 103 181 152 53 27
95 53 93 58 -5 11 -80 12 -121 2 -18 -5 -38 -23 -55 -50 l-27 -42 -8 40 c-4
22 -15 53 -24 68 -14 25 -14 30 0 52 19 29 86 69 156 94 60 21 75 34 66 56 -5
14 -14 16 -44 11 -70 -13 -138 -54 -195 -120 -31 -34 -62 -63 -69 -64 -7 0
-46 -12 -86 -26 -155 -53 -258 -133 -325 -251 -28 -51 -37 -60 -59 -57 -14 1
-31 -5 -40 -15 -24 -27 -78 -213 -88 -300 -9 -83 -6 -95 49 -216 17 -38 31
-71 31 -73 0 -2 -18 -4 -39 -4 -22 0 -51 -4 -65 -10 -25 -9 -26 -8 -26 30 0
78 -48 88 -160 31 -33 -16 -60 -28 -60 -26 0 2 14 40 31 85 22 57 28 85 21 92
-18 18 -39 1 -73 -61 l-34 -61 -11 32 c-17 51 -50 65 -120 50 -32 -6 -75 -23
-96 -37 l-38 -25 0 45 c0 51 -21 72 -83 82 -34 5 -37 3 -54 -33 -11 -23 -25
-38 -33 -36 -8 2 -44 4 -80 4 l-65 0 30 25 c67 55 92 70 131 81 47 14 61 34
38 57 -19 19 -25 19 -50 0 -10 -8 -41 -15 -69 -15 -57 0 -116 -16 -230 -59
-44 -17 -81 -31 -82 -31 -10 0 2 27 27 62 21 29 30 53 30 80 0 37 3 40 46 60
40 17 50 18 71 7 20 -11 26 -10 40 3 36 37 -21 76 -87 58 -20 -5 -57 -28 -82
-49 -70 -62 -192 -77 -276 -35 -18 8 -32 20 -32 25 0 5 19 18 43 30 79 40 98
77 59 112 -37 34 -92 9 -62 -28 16 -20 8 -29 -45 -49 l-45 -18 -31 34 c-33 36
-89 113 -89 123 0 3 9 4 20 1 11 -3 29 -9 40 -12 15 -4 20 -1 20 13 0 11 -6
25 -12 32 -11 10 -8 11 15 6 35 -9 77 1 77 19 0 7 -9 34 -20 58 -11 25 -26 72
-34 106 l-14 62 71 -59 c133 -109 230 -139 282 -86 48 47 27 92 -93 206 -43
41 -86 88 -96 105 -19 32 -149 134 -172 134 -8 0 -14 -10 -14 -24z m62 -192
c29 -15 73 -27 99 -29 54 -3 110 -41 155 -106 29 -42 25 -59 -12 -59 -57 0
-219 111 -284 193 -27 33 -22 34 42 1z m-117 -174 c61 -65 66 -84 14 -53 -31
17 -98 113 -80 113 4 0 34 -27 66 -60z m-20 -95 c17 -14 25 -25 18 -25 -7 0
-34 21 -60 47 -45 44 -24 34 42 -22z m-327 -53 c6 -18 -15 -14 -22 4 -4 10 -1
14 6 12 6 -2 14 -10 16 -16z m196 -58 c26 -31 46 -60 46 -65 0 -19 -69 45 -90
83 -31 56 -8 46 44 -18z m-84 -59 c7 -8 9 -26 5 -44 -12 -57 62 -159 253 -346
67 -67 122 -127 122 -134 0 -20 -35 -60 -46 -53 -6 4 -30 34 -55 67 -24 33
-76 96 -114 140 -109 124 -159 193 -204 282 -22 46 -41 87 -41 93 0 16 66 12
80 -5z m201 -197 c40 -33 144 -176 135 -186 -9 -8 -33 16 -112 110 -93 111
-101 139 -23 76z m418 -60 c-7 -13 -27 -38 -46 -56 -39 -40 -41 -52 -12 -78
34 -31 91 -22 198 30 85 42 151 58 151 39 0 -11 -120 -89 -150 -98 -14 -4 -37
-16 -52 -27 -15 -10 -41 -24 -58 -29 -29 -11 -33 -8 -137 89 -60 54 -119 105
-131 111 -47 25 -11 23 40 -2 86 -42 102 -43 128 -10 36 47 90 70 69 31z
m1980 -160 c-27 -55 -67 -108 -80 -108 -11 0 4 27 58 104 41 58 50 59 22 4z
m605 -36 c-45 -33 -79 -52 -91 -52 -4 0 19 18 52 40 69 46 98 54 39 12z
m-2254 -11 c-9 -19 -66 -39 -77 -28 -10 11 8 27 30 27 12 0 29 5 37 10 21 14
22 13 10 -9z m438 13 c27 -8 28 -25 2 -42 -11 -6 -58 -46 -105 -88 -60 -53
-100 -80 -137 -93 -36 -12 -57 -26 -65 -43 -11 -22 -19 -25 -73 -27 -43 -1
-60 2 -60 11 1 34 243 223 343 269 45 20 60 22 95 13z m-3573 -39 c-16 -14
-84 -52 -150 -84 -66 -33 -154 -84 -196 -113 -42 -29 -110 -76 -150 -104 -41
-28 -105 -81 -143 -118 -76 -72 -95 -78 -169 -52 -57 21 -77 43 -77 86 0 43
27 83 72 106 17 9 135 51 262 95 127 43 303 107 391 143 175 71 206 78 160 41z
m3635 -55 c0 -34 -34 -60 -53 -41 -8 8 -3 19 18 41 16 16 30 30 32 30 2 0 3
-13 3 -30z m1315 -190 c-3 -5 -11 -10 -16 -10 -6 0 -7 5 -4 10 3 6 11 10 16
10 6 0 7 -4 4 -10z m805 -216 c0 -9 -11 -14 -34 -14 -29 0 -33 -3 -29 -20 3
-11 14 -25 24 -31 26 -13 24 -24 -6 -37 -14 -6 -25 -18 -25 -25 0 -22 -51 -62
-142 -110 -48 -26 -92 -47 -97 -47 -6 0 -6 13 1 33 22 71 22 77 -4 77 -13 0
-57 -20 -98 -44 -148 -87 -161 -68 -26 36 101 77 115 93 116 129 0 52 28 63
167 66 69 1 128 5 131 8 8 8 22 -5 22 -21z m110 -9 c0 -8 -4 -15 -10 -15 -5 0
-10 7 -10 15 0 8 5 15 10 15 6 0 10 -7 10 -15z m-5760 -220 c0 -14 -4 -25 -9
-25 -4 0 -23 -31 -40 -70 -29 -62 -51 -88 -51 -60 0 16 -68 12 -98 -7 -15 -9
-72 -62 -127 -118 -100 -101 -197 -175 -203 -155 -4 11 34 131 55 173 11 21
19 26 36 22 33 -9 84 30 137 102 40 55 49 62 80 63 19 0 55 9 79 20 56 26 62
25 51 -6 -14 -36 -12 -43 5 -14 8 14 14 32 15 42 0 15 45 57 63 58 4 0 7 -11
7 -25z m-437 -80 c-3 -9 -8 -14 -10 -11 -3 3 -2 9 2 15 9 16 15 13 8 -4z
m5757 5 c0 -5 -5 -10 -11 -10 -5 0 -7 5 -4 10 3 6 8 10 11 10 2 0 4 -4 4 -10z
m-773 -132 c51 -24 56 -40 11 -32 -130 22 -165 35 -152 56 9 14 90 0 141 -24z
m870 16 c2 -6 -8 -16 -22 -22 -16 -7 -25 -8 -25 -2 0 13 -51 -19 -64 -38 -7
-12 -10 -12 -16 -2 -6 10 -25 4 -78 -24 -97 -49 -111 -46 -51 14 40 40 61 53
110 65 33 9 63 14 67 12 4 -3 16 -1 27 4 25 10 47 7 52 -7z m-5569 -86 c-13
-18 -46 -79 -75 -138 -51 -104 -51 -105 -52 -63 -1 31 8 57 31 95 38 62 79
120 93 130 23 17 25 6 3 -24z m-114 -44 c-20 -32 -54 -76 -74 -98 -21 -23 -57
-72 -80 -111 -63 -104 -102 -155 -117 -155 -53 0 85 217 229 362 39 38 72 67
75 65 2 -3 -13 -31 -33 -63z m136 -134 c-23 -85 -42 -164 -44 -175 -2 -11 -13
-40 -24 -65 -12 -25 -22 -55 -22 -68 0 -12 -18 -42 -40 -66 -31 -33 -82 -121
-70 -121 9 0 -15 -75 -26 -79 -22 -8 -28 19 -15 69 6 24 11 58 11 74 0 35 59
186 133 341 27 58 63 136 79 175 26 63 49 95 56 77 1 -4 -16 -77 -38 -162z
m4255 128 c21 -7 40 -19 43 -25 5 -18 -47 -16 -93 3 -21 8 -46 13 -57 11 -11
-3 -16 -1 -11 6 4 6 0 8 -10 4 -10 -3 -17 -2 -17 3 0 5 -10 11 -22 14 -13 3
11 3 53 1 42 -3 93 -10 114 -17z m1025 -34 c0 -6 -111 -56 -115 -52 -8 8 23
36 50 46 33 12 65 15 65 6z m-1103 -250 c-3 -3 -12 -4 -19 -1 -8 3 -5 6 6 6
11 1 17 -2 13 -5z m459 -93 c28 -33 113 -81 145 -81 9 0 22 -6 28 -14 10 -12
5 -15 -28 -21 -22 -4 -51 -15 -64 -25 l-23 -19 -62 99 c-34 55 -62 104 -62
110 0 16 31 -7 66 -49z m-124 22 c35 -42 100 -160 105 -190 5 -30 3 -33 -20
-33 -46 0 -127 130 -127 204 0 39 18 47 42 19z m-756 -63 c109 -26 130 -37 67
-36 -33 1 -47 -3 -45 -11 3 -18 0 -17 -76 21 -89 45 -156 106 -73 65 22 -10
79 -28 127 -39z m1954 45 c10 -12 10 -15 -3 -15 -8 0 -20 7 -27 15 -10 12 -10
15 3 15 8 0 20 -7 27 -15z m-5505 -154 c-30 -85 -51 -117 -40 -61 15 81 36
155 48 168 24 30 20 -28 -8 -107z m4674 92 c0 -25 -1 -25 -8 -8 -5 11 -7 23
-4 28 8 14 13 7 12 -20z m558 -74 c113 -20 83 -46 -58 -50 -111 -4 -214 29
-194 62 9 13 142 7 252 -12z m-3402 3 c6 -4 21 -29 34 -55 36 -72 97 -135 161
-167 54 -27 110 -79 110 -101 0 -20 -126 58 -189 116 -68 63 -141 165 -141
197 0 19 8 23 25 10z m1943 -74 c4 -19 -22 -23 -65 -12 -43 12 -33 30 15 29
36 0 47 -4 50 -17z m903 -8 c56 -30 122 -48 198 -53 27 -2 46 -8 49 -17 7 -20
-173 -5 -260 21 -66 20 -90 40 -81 67 7 19 36 14 94 -18z m301 11 c20 -9 18
-10 -17 -10 -57 -1 -115 10 -115 22 0 11 94 3 132 -12z m-2644 -141 c26 -16
70 -37 97 -46 66 -22 96 -50 91 -83 -2 -14 -5 -29 -5 -33 -2 -17 -23 -6 -52
27 -17 19 -37 35 -45 35 -30 0 -143 53 -166 78 -29 31 -48 81 -48 124 0 29 1
29 40 -21 23 -28 62 -65 88 -81z m-1633 83 c110 -73 345 -310 345 -347 0 -9
-76 30 -129 67 -68 46 -176 152 -231 227 -27 37 -50 70 -50 74 0 13 27 5 65
-21z m-887 -197 c-19 -65 -32 -89 -71 -133 -27 -29 -53 -51 -57 -48 -11 7 8
63 60 170 22 47 40 88 40 91 0 3 10 29 23 57 l22 52 3 -55 c2 -35 -5 -82 -20
-134z m4680 154 c2 -13 10 -33 18 -44 8 -11 14 -24 14 -28 0 -20 -21 -3 -59
48 l-41 55 32 -3 c26 -2 34 -8 36 -28z m-2063 0 c22 -24 8 -27 -46 -9 -53 18
-58 29 -13 29 28 0 47 -6 59 -20z m2018 -54 c30 -32 31 -49 3 -54 -26 -5 -58
35 -62 75 -3 31 -2 34 14 22 9 -7 29 -26 45 -43z m-177 -27 c22 -17 41 -32 43
-34 1 -2 -7 -22 -19 -43 l-23 -40 -33 63 c-19 35 -34 69 -34 74 0 20 27 11 66
-20z m498 -181 c21 -38 34 -68 29 -68 -17 0 -107 69 -119 92 -12 21 -26 78
-40 163 -4 24 5 14 44 -45 27 -41 66 -105 86 -142z m-2052 178 c69 -15 88 -22
88 -35 0 -19 -97 -4 -140 22 -51 31 -43 33 52 13z m-2572 -104 c0 -31 9 -97
21 -147 20 -93 37 -332 20 -305 -35 60 -92 462 -70 501 17 32 29 11 29 -49z
m496 -58 c19 -65 59 -184 88 -264 29 -80 57 -158 60 -174 7 -27 6 -28 -9 -16
-27 23 -101 132 -113 168 -6 18 -9 46 -6 61 4 18 -2 46 -15 75 -11 26 -25 84
-31 129 -6 45 -13 98 -17 117 -11 64 7 24 43 -96z m1660 55 l69 -61 75 7 c138
12 154 7 164 -49 9 -45 169 -208 256 -260 88 -52 61 -57 -39 -7 -44 23 -85 41
-90 41 -6 0 -74 29 -153 63 -79 35 -160 70 -181 76 -34 11 -36 14 -21 25 13
10 14 17 5 34 -6 12 -15 22 -19 22 -4 0 -31 21 -60 46 -49 43 -104 124 -84
124 5 0 40 -28 78 -61z m1146 17 c5 -7 -7 -13 -35 -16 -49 -6 -89 1 -94 17 -8
23 114 22 129 -1z m-3422 -10 c0 -8 -4 -18 -10 -21 -5 -3 -10 3 -10 14 0 12 5
21 10 21 6 0 10 -6 10 -14z m2317 -1 c30 -15 62 -45 49 -45 -3 0 -25 14 -48
30 -46 33 -46 37 -1 15z m-2125 -22 c9 -10 21 -34 27 -54 10 -31 9 -44 -7 -85
l-19 -48 -12 85 c-7 46 -14 92 -17 102 -3 9 -1 17 4 17 5 0 16 -8 24 -17z
m4273 -37 c14 -18 25 -36 25 -40 0 -4 23 -60 51 -124 73 -166 100 -242 88
-242 -5 0 -23 7 -39 15 -30 15 -34 24 -91 195 -17 52 -47 125 -65 162 -19 37
-34 72 -34 78 0 18 37 -7 65 -44z m-1590 30 c58 -16 145 -56 145 -68 0 -24
-181 25 -230 62 l-25 20 30 0 c17 0 53 -6 80 -14z m255 -21 c94 -16 109 -22
110 -49 0 -18 -100 4 -157 34 l-58 30 45 -6 c25 -3 52 -7 60 -9z m1225 -29
c27 -46 60 -134 53 -141 -7 -7 -98 151 -98 169 0 28 19 17 45 -28z m-1640 24
c8 -13 -5 -13 -25 0 -13 8 -13 10 2 10 9 0 20 -4 23 -10z m-2755 -12 c0 -7 -7
-35 -15 -62 -8 -27 -15 -62 -15 -77 0 -29 -38 -119 -51 -119 -4 0 -12 13 -19
30 -14 33 -10 45 50 173 29 62 50 85 50 55z m4627 -37 c58 -74 153 -297 153
-360 0 -66 -36 -20 -93 119 -19 47 -49 117 -65 155 -44 104 -47 116 -25 108
10 -4 24 -14 30 -22z m-4538 -111 c7 -47 26 -125 42 -174 17 -50 29 -99 27
-110 -3 -19 -5 -19 -22 7 -42 62 -68 158 -73 272 -6 130 8 133 26 5z m271 79
c0 -6 -4 -7 -10 -4 -5 3 -10 11 -10 16 0 6 5 7 10 4 6 -3 10 -11 10 -16z
m2448 -35 c29 -35 77 -134 65 -134 -21 0 -143 137 -143 161 0 5 11 9 24 9 16
0 35 -13 54 -36z m445 20 c33 -6 37 -10 37 -35 l0 -29 -55 27 c-78 39 -72 51
18 37z m-2771 -38 c35 -42 71 -146 51 -146 -5 0 -28 33 -52 73 -25 39 -51 80
-60 90 -15 17 -14 18 14 11 17 -3 38 -16 47 -28z m2532 23 c34 -6 89 -24 123
-40 34 -16 66 -29 72 -29 29 0 90 -34 100 -56 16 -36 15 -36 -30 -14 -43 23
-69 21 -69 -5 0 -17 -4 -18 -28 -6 -49 26 -229 136 -242 148 -18 17 -8 17 74
2z m429 -21 c37 -19 49 -41 30 -55 -11 -8 -12 -13 -4 -13 8 0 10 -7 6 -19 -4
-13 7 -34 37 -69 24 -28 74 -110 111 -184 68 -134 90 -198 68 -198 -6 0 -11 6
-11 14 0 26 -39 106 -52 106 -7 0 -23 16 -36 35 -12 19 -29 35 -37 35 -20 0
-37 -36 -30 -63 5 -19 3 -18 -19 7 -23 28 -102 209 -124 286 -13 46 -21 117
-14 124 9 10 52 7 75 -6z m953 -70 c28 -54 9 -51 -21 3 -20 37 -23 50 -11 40
9 -8 24 -28 32 -43z m-4075 -71 c4 -56 13 -151 20 -212 17 -150 16 -172 -9
-197 -17 -18 -23 -19 -36 -9 -45 38 -52 260 -14 428 12 56 25 99 27 97 3 -3 8
-51 12 -107z m2773 -4 c97 -56 116 -63 163 -63 40 0 58 5 73 20 l21 21 15 -38
c30 -70 75 -196 71 -199 -10 -10 -111 62 -129 92 -11 19 -28 39 -38 44 -21 11
-53 3 -44 -11 10 -17 -7 -9 -99 46 -87 53 -132 93 -180 160 l-22 30 30 -20
c17 -11 79 -48 139 -82z m-570 38 c17 -10 63 -31 103 -46 l71 -28 41 -84 c58
-119 56 -124 -23 -64 -81 61 -253 241 -230 241 4 0 21 -8 38 -19z m-2694 -20
c0 -20 -17 -37 -27 -28 -7 8 7 47 18 47 5 0 9 -9 9 -19z m1273 -56 c52 -53
115 -151 104 -161 -7 -7 -214 183 -221 202 -4 10 3 14 29 14 28 0 43 -9 88
-55z m3433 -32 c-5 -5 -36 62 -36 76 1 3 10 -11 21 -32 11 -22 18 -41 15 -44z
m-4008 -9 l-4 -29 -17 37 c-23 51 -22 67 4 42 14 -15 19 -30 17 -50z m-120 3
c4 -29 -12 -37 -22 -11 -10 26 -7 46 7 42 6 -3 13 -17 15 -31z m3342 -8 c16
-30 56 -296 48 -320 -3 -8 -13 9 -22 36 -58 163 -96 281 -96 301 0 22 2 22 31
10 18 -7 35 -20 39 -27z m-2159 -115 c63 -142 76 -194 33 -130 -34 49 -114
225 -114 249 0 43 28 2 81 -119z m2956 23 c17 -34 39 -93 47 -131 19 -80 12
-96 -39 -96 -27 0 -41 8 -69 42 -43 49 -47 78 -12 78 52 0 54 42 7 158 -11 29
-21 56 -21 59 0 20 61 -56 87 -110z m-1690 78 c67 -17 104 -36 113 -55 16 -34
33 -87 38 -120 5 -35 5 -35 -44 27 -43 54 -79 81 -92 68 -3 -3 -5 -18 -6 -34
-1 -37 -4 -34 -57 63 -35 64 -39 78 -23 72 10 -4 43 -14 71 -21z m1412 -48
c15 -48 26 -194 13 -182 -9 9 -102 235 -102 248 0 2 18 -4 39 -15 28 -14 43
-29 50 -51z m-3583 11 c21 -29 57 -76 80 -105 23 -28 47 -66 53 -85 13 -41 22
-250 10 -242 -5 3 -9 16 -9 30 0 14 -8 41 -19 62 -10 20 -28 67 -40 104 -12
37 -44 111 -72 165 -67 133 -68 160 -3 71z m1674 -78 c31 -30 113 -92 145
-109 51 -27 69 -27 62 -1 -7 28 7 25 48 -11 40 -35 41 -50 1 -24 -23 16 -27
16 -41 1 -23 -22 -37 -20 -108 15 -78 39 -237 194 -237 230 0 24 2 22 130
-101z m695 100 c10 -11 16 -20 13 -20 -3 0 -13 9 -23 20 -10 11 -16 20 -13 20
3 0 13 -9 23 -20z m-1304 -41 c59 -36 82 -43 157 -52 91 -10 105 -17 117 -54
4 -17 2 -23 -8 -23 -53 0 -50 -124 4 -202 23 -32 24 -39 3 -31 -28 11 -249
235 -299 303 -85 117 -82 123 26 59z m2112 -31 c9 -21 17 -57 17 -80 0 -44 44
-291 55 -308 12 -20 -24 -9 -53 15 -28 24 -29 28 -25 87 3 35 -2 119 -11 186
-17 132 -20 193 -7 157 4 -11 15 -37 24 -57z m-2779 7 c18 -27 21 -72 6 -95
-9 -13 -10 -13 -10 1 0 8 -13 33 -30 55 -32 43 -37 60 -17 67 18 6 34 -2 51
-28z m2021 -15 c3 -6 -1 -7 -9 -4 -18 7 -21 14 -7 14 6 0 13 -4 16 -10z m133
-52 c2 -5 12 -8 22 -8 25 0 35 -20 49 -100 12 -62 16 -69 102 -160 50 -52 85
-96 79 -98 -16 -6 -221 188 -246 232 -12 21 -19 47 -16 62 2 13 0 24 -6 24
-15 0 -30 29 -37 71 l-6 33 28 -24 c15 -14 29 -28 31 -32z m-2040 -16 c41 -38
48 -58 33 -96 -7 -19 -13 -11 -82 117 -15 28 5 20 49 -21z m2997 -3 c9 -17 14
-36 12 -42 -4 -12 -37 44 -37 63 0 18 9 11 25 -21z m198 -65 c26 -52 45 -99
42 -105 -9 -13 -58 -11 -77 4 -11 9 -17 37 -21 105 -3 50 -3 92 1 92 4 0 29
-43 55 -96z m-3928 12 c18 -33 15 -66 -4 -66 -15 0 -37 48 -44 94 -6 36 -5 38
12 22 10 -9 26 -32 36 -50z m2910 44 c8 -14 91 -61 112 -64 9 -2 19 -8 21 -15
3 -9 -2 -11 -14 -8 -11 4 -32 9 -49 13 -32 7 -70 37 -86 67 -10 18 5 25 16 7z
m745 -11 c0 -6 -4 -7 -10 -4 -5 3 -10 11 -10 16 0 6 5 7 10 4 6 -3 10 -11 10
-16z m-3512 -32 c3 -33 1 -38 -15 -35 -13 2 -19 14 -21 41 -3 33 -1 38 15 35
13 -2 19 -14 21 -41z m412 -85 c29 -57 49 -106 46 -109 -21 -22 -116 137 -116
194 0 48 7 40 70 -85z m40 66 c13 -24 43 -71 67 -106 49 -71 57 -104 14 -54
-32 37 -123 202 -112 202 4 0 18 -19 31 -42z m800 -120 c24 -42 15 -50 -17
-15 -20 22 -92 128 -107 157 -16 30 103 -106 124 -142z m-497 95 c36 -57 69
-124 64 -130 -6 -6 -84 108 -97 142 -15 38 6 31 33 -12z m1637 -28 c22 -30 45
-66 50 -79 5 -14 29 -58 55 -100 43 -71 56 -118 36 -130 -11 -7 -28 20 -106
168 -32 61 -66 124 -76 140 -11 17 -19 37 -19 44 0 25 20 10 60 -43z m-744 1
c46 -24 79 -46 73 -48 -10 -3 11 -37 89 -138 36 -48 36 -59 0 -37 -12 8 -41
20 -63 27 -52 16 -78 41 -122 115 -20 33 -45 75 -55 93 -11 17 -17 32 -13 32
4 0 45 -20 91 -44z m245 -26 c30 -11 91 -23 135 -26 l82 -7 56 -86 c31 -47 66
-97 76 -111 17 -21 19 -34 14 -88 -6 -50 -10 -62 -24 -62 -21 0 -42 23 -38 42
4 17 -49 76 -86 95 -27 14 -31 14 -43 -3 -7 -10 -13 -24 -13 -31 0 -24 -17
-13 -31 19 -17 41 -67 98 -85 98 -8 0 -18 -9 -22 -21 -8 -19 -10 -18 -35 18
-26 37 -87 165 -102 213 l-8 24 35 -26 c20 -15 60 -36 89 -48z m-422 34 c27
-34 26 -46 -1 -42 -34 5 -60 68 -28 68 5 0 18 -12 29 -26z m1001 -27 c0 -20
-1 -20 -16 -5 -9 9 -13 21 -9 27 10 16 25 3 25 -22z m1240 -8 c0 -6 -4 -7 -10
-4 -5 3 -10 11 -10 16 0 6 5 7 10 4 6 -3 10 -11 10 -16z m-3720 -9 c17 -17 20
-33 20 -107 -1 -51 -7 -101 -14 -118 l-14 -30 -12 30 c-10 27 -29 166 -30 223
0 28 23 29 50 2z m760 -78 c34 -51 60 -95 57 -98 -2 -3 -27 17 -54 43 -44 44
-73 100 -73 143 0 17 -2 20 70 -88z m2219 49 c11 -7 21 -39 34 -112 9 -56 15
-104 13 -106 -2 -3 -29 26 -59 64 -30 37 -67 79 -82 93 -15 14 -36 38 -48 54
l-21 29 73 -7 c40 -3 80 -10 90 -15z m-1788 -33 c8 -15 8 -18 0 -14 -6 4 -16
16 -22 28 -8 15 -8 18 0 14 6 -4 16 -16 22 -28z m1554 -136 c53 -99 66 -142
43 -142 -9 0 -40 42 -71 93 -48 82 -63 115 -92 202 -15 45 77 -72 120 -153z
m-1697 79 c58 -39 77 -61 51 -61 -28 0 -83 37 -119 80 -44 52 -53 75 -17 43
12 -11 50 -39 85 -62z m1204 36 c15 -29 28 -77 20 -77 -11 0 -62 89 -62 107 0
13 3 13 16 3 8 -8 20 -22 26 -33z m155 -70 c62 -126 69 -147 53 -157 -9 -6 -8
-15 4 -38 20 -38 20 -42 2 -42 -16 0 -26 21 -26 54 0 12 -23 58 -51 101 -28
44 -61 101 -75 127 l-24 47 28 4 c15 2 30 5 33 6 3 0 28 -45 56 -102z m-1166
11 c5 -10 6 -18 1 -18 -4 0 -16 17 -25 38 -15 31 -15 34 -1 17 8 -11 20 -28
25 -37z m319 -3 c0 -25 -2 -45 -5 -45 -5 0 -55 77 -55 85 0 3 14 5 30 5 29 0
30 -2 30 -45z m172 -57 c24 -19 58 -80 58 -103 0 -17 -3 -16 -25 10 -32 37
-68 105 -57 105 4 0 15 -6 24 -12z m638 -90 c0 -12 -17 -9 -28 5 -5 6 -13 23
-16 37 -7 24 -6 24 18 -5 14 -16 26 -33 26 -37z m-1279 41 c44 -15 149 -117
149 -144 -1 -27 -34 -65 -57 -65 -31 0 -61 28 -73 68 -11 34 -30 69 -68 130
-17 26 -6 29 49 11z m424 -54 c38 -60 40 -65 26 -65 -12 0 -81 94 -81 109 0
25 21 8 55 -44z m-827 13 c12 -18 19 -34 16 -37 -7 -7 -42 29 -47 50 -8 29 9
23 31 -13z m1171 13 c17 -11 7 -45 -12 -39 -13 5 -23 48 -10 48 4 0 14 -4 22
-9z m-395 -85 c44 -56 57 -86 38 -86 -14 0 -38 32 -66 87 -42 85 -38 84 28 -1z
m553 1 c25 -22 22 -39 -5 -30 -25 9 -62 44 -62 60 0 17 32 2 67 -30z m-575
-132 c33 -49 64 -92 69 -93 5 -2 14 -12 19 -22 13 -24 -14 -53 -41 -45 -22 7
-26 -14 -7 -33 15 -15 63 -16 89 -2 33 18 25 80 -16 134 l-35 46 43 0 c46 0
67 13 67 41 0 48 69 4 101 -65 8 -16 19 -31 24 -33 14 -4 18 94 6 135 -12 39
-1 41 36 6 15 -15 43 -39 62 -55 38 -31 37 -42 -6 -41 -31 0 -63 -14 -63 -28
0 -20 33 -41 59 -36 113 21 122 38 65 123 -20 30 -34 57 -31 60 3 3 26 -4 50
-16 24 -11 52 -21 63 -21 42 0 62 -53 24 -63 -47 -12 -5 -77 50 -77 22 0 26
-5 28 -32 2 -24 0 -29 -7 -18 -8 11 -12 9 -20 -13 -16 -41 -13 -65 8 -76 13
-8 17 -18 13 -38 -8 -44 -7 -94 1 -155 l7 -58 -28 0 c-15 0 -37 -6 -48 -14
-17 -13 -19 -27 -19 -148 l0 -134 38 -62 c34 -56 38 -66 32 -107 -7 -40 -12
-47 -53 -70 -25 -14 -63 -30 -84 -34 -21 -5 -48 -15 -61 -23 -29 -20 -150 -33
-145 -16 5 14 40 24 133 39 63 10 112 29 74 29 -33 0 -89 22 -89 35 0 8 14 21
30 30 19 10 30 23 30 37 0 21 -2 21 -122 15 -66 -4 -167 -7 -222 -7 -56 0
-106 -4 -113 -8 -6 -4 -14 -19 -18 -33 l-6 -26 177 5 c131 4 175 2 170 -7 -4
-6 -16 -11 -26 -11 -10 0 -21 -3 -24 -8 -2 -4 -56 -6 -119 -5 -70 1 -132 -3
-158 -10 -36 -11 -51 -10 -87 2 -35 11 -48 11 -66 1 -20 -10 -29 -8 -65 14
-23 15 -55 29 -71 33 -51 10 -33 28 35 35 11 2 43 -1 72 -6 49 -7 93 3 93 22
0 4 -24 18 -52 32 -61 29 -142 31 -183 4 -19 -12 -38 -15 -70 -11 -24 4 -57 2
-74 -4 -26 -9 -35 -8 -57 10 -31 24 -44 20 -44 -15 0 -17 -5 -24 -20 -24 -21
0 -28 24 -10 35 12 7 11 -2 14 276 1 163 5 221 15 233 7 9 10 23 7 32 -8 21
11 44 35 44 25 0 25 -32 -1 -55 -24 -21 -26 -67 -5 -85 39 -33 85 37 85 130 0
57 4 70 29 100 35 43 39 56 46 144 3 39 7 71 8 73 2 1 21 -6 43 -18 49 -25 97
-20 129 16 17 18 34 25 60 25 39 0 45 16 20 60 -8 14 -14 34 -14 45 0 17 5 14
30 -15 17 -19 58 -75 91 -125z m1018 30 c10 -12 10 -15 -3 -15 -8 0 -20 7 -27
15 -10 12 -10 15 3 15 8 0 20 -7 27 -15z m-1740 -46 c0 -18 -2 -19 -15 -9 -15
12 -12 30 6 30 5 0 9 -10 9 -21z m290 -44 c0 -25 -7 -62 -15 -81 -8 -20 -13
-39 -11 -43 3 -4 1 -13 -4 -21 -7 -12 -12 -12 -21 -3 -10 10 -10 22 0 55 8 24
17 55 21 70 5 15 6 36 3 47 -4 15 -1 21 11 21 12 0 16 -10 16 -45z m1404 0 c3
-9 0 -15 -9 -15 -8 0 -15 7 -15 15 0 8 4 15 9 15 5 0 11 -7 15 -15z m-1710
-64 c26 -27 27 -32 17 -64 -7 -20 -18 -41 -26 -47 -11 -9 -15 -7 -19 12 -10
44 -14 128 -7 128 4 0 20 -13 35 -29z m1680 -8 c10 -34 3 -113 -9 -113 -12 0
-28 106 -18 123 7 13 21 8 27 -10z m-146 -35 c-6 -18 -28 -21 -28 -4 0 9 7 16
16 16 9 0 14 -5 12 -12z m-1528 -166 c0 -50 -5 -75 -20 -97 l-20 -30 0 88 c0
51 4 87 10 87 6 0 10 7 10 16 0 8 5 12 10 9 6 -3 10 -36 10 -73z m1480 49 c0
-11 -4 -23 -10 -26 -6 -4 -10 5 -10 19 0 14 5 26 10 26 6 0 10 -9 10 -19z m20
-90 c0 -11 -26 -22 -34 -14 -12 12 -5 23 14 23 11 0 20 -4 20 -9z m13 -78 c11
-10 -13 -33 -34 -33 -12 0 -19 7 -19 20 0 14 7 20 23 20 13 0 27 -3 30 -7z
m-1414 -120 c-1 -33 -2 -35 -8 -13 -4 14 -6 31 -3 38 8 22 12 13 11 -25z
m1302 -20 c0 -27 2 -71 5 -100 3 -32 0 -64 -9 -85 l-15 -33 -12 30 c-7 17 -15
76 -18 133 l-4 102 26 0 c24 0 26 -3 27 -47z m104 30 c-4 -10 -12 -30 -17 -45
-5 -16 -14 -28 -19 -28 -14 0 -11 78 4 83 27 11 39 7 32 -10z m-1500 -23 c-4
-12 -9 -19 -12 -17 -3 3 -2 15 2 27 4 12 9 19 12 17 3 -3 2 -15 -2 -27z m25
-174 c0 -15 -18 -31 -26 -23 -7 7 7 37 17 37 5 0 9 -6 9 -14z m1520 -74 c0
-23 -26 -59 -36 -50 -8 9 15 68 27 68 5 0 9 -8 9 -18z m100 -109 c0 -14 -6
-23 -15 -23 -15 0 -22 50 -8 63 9 10 23 -14 23 -40z m-2284 12 c18 -14 17 -14
-13 -15 -23 0 -33 5 -33 15 0 19 21 19 46 0z m2169 -66 c-5 -104 -10 -119 -41
-119 -13 0 -24 1 -24 3 7 86 44 197 66 197 2 0 2 -36 -1 -81z m-1755 51 c0 -5
-10 -10 -22 -9 -22 0 -22 1 -3 9 11 5 21 9 23 9 1 1 2 -3 2 -9z m-75 -10 c4
-6 -7 -10 -24 -10 -17 0 -31 5 -31 10 0 6 11 10 24 10 14 0 28 -4 31 -10z
m2865 1 c0 -13 -64 -67 -101 -87 -38 -19 -205 -34 -236 -21 -16 7 -33 3 -70
-16 -34 -18 -70 -27 -128 -31 -44 -4 -107 -9 -140 -12 -75 -8 -64 6 23 30 35
9 85 27 111 41 26 13 96 33 155 44 59 12 117 26 129 32 42 23 257 39 257 20z
m-2977 -8 c-7 -2 -19 -2 -25 0 -7 3 -2 5 12 5 14 0 19 -2 13 -5z m-466 -33
c-3 -11 -1 -20 4 -20 13 0 89 -51 89 -60 0 -7 -69 9 -102 24 -9 4 -25 3 -37
-3 -29 -16 -71 -14 -71 3 0 18 38 46 61 46 9 0 22 7 29 15 18 21 33 19 27 -5z
m191 -14 c49 -11 52 -13 38 -31 -13 -19 -14 -19 -57 2 -24 12 -52 24 -61 27
-10 3 -18 11 -18 17 0 7 8 9 23 4 12 -4 46 -12 75 -19z m762 -16 c0 -5 -12
-10 -26 -10 -14 0 -23 4 -19 10 3 6 15 10 26 10 10 0 19 -4 19 -10z m240 1 c0
-14 -27 -21 -76 -21 -51 0 -60 17 -11 23 61 7 87 7 87 -2z m1550 -38 c-68 -18
-79 -27 -62 -54 8 -12 12 -23 9 -25 -2 -2 -30 0 -63 4 -42 5 -59 11 -59 22 0
11 9 14 30 12 17 -2 34 3 40 10 15 21 85 47 125 47 31 -1 29 -2 -20 -16z
m-469 -40 c-9 -15 -10 -12 -10 17 0 29 1 32 10 18 7 -12 7 -24 0 -35z m-2476
7 c15 -1 10 -6 -20 -23 -84 -47 -175 -111 -181 -129 -8 -25 -22 -23 -36 6 -16
36 -32 38 -91 12 -70 -31 -117 -40 -117 -21 0 15 51 55 70 55 18 0 114 43 122
54 4 6 11 11 15 12 4 0 24 8 43 16 55 24 80 26 195 18z m2073 -5 c-3 -3 -20
-10 -37 -15 -28 -8 -31 -7 -21 5 7 8 24 15 38 15 14 0 23 -2 20 -5z m2292 -60
c-97 -99 -211 -103 -146 -4 27 40 29 41 156 47 l34 2 -44 -45z m-178 23 c28 1
31 -17 5 -29 -13 -6 -32 -26 -41 -46 -13 -27 -31 -41 -89 -68 -39 -19 -86 -37
-104 -41 l-32 -6 62 95 c66 102 80 111 152 100 17 -3 38 -5 47 -5z m-212 -6
c0 -9 -21 -41 -71 -108 -21 -27 -45 -66 -53 -86 -15 -34 -42 -53 -121 -83 -26
-10 -115 -18 -115 -10 0 15 57 116 97 173 28 39 52 62 64 62 26 0 24 -25 -7
-77 -30 -51 -29 -87 3 -91 18 -3 29 12 69 85 26 48 54 96 63 107 22 26 71 45
71 28z m-1765 -11 c-15 -14 -102 -41 -132 -41 -45 0 -9 24 55 36 76 15 88 16
77 5z m-1485 -10 c-23 -13 -137 -25 -125 -13 12 12 35 17 95 19 29 1 40 -1 30
-6z m1919 -56 c0 -16 -4 -39 -9 -50 -6 -17 -9 -14 -15 17 -9 47 2 99 16 77 5
-7 8 -27 8 -44z m-2129 26 c0 -4 -21 -11 -47 -14 -27 -4 -58 -9 -70 -13 -15
-4 -23 -2 -23 5 0 6 10 16 23 21 29 11 117 13 117 1z m1825 -1 c-3 -5 -15 -10
-26 -10 -10 0 -19 5 -19 10 0 6 12 10 26 10 14 0 23 -4 19 -10z m-1405 -14 c0
-8 -44 -36 -99 -64 -55 -28 -97 -45 -95 -38 6 12 87 66 101 66 5 0 24 11 43
25 41 28 50 30 50 11z m60 4 c0 -5 -4 -10 -10 -10 -5 0 -10 5 -10 10 0 6 5 10
10 10 6 0 10 -4 10 -10z m1035 0 c-3 -5 -11 -10 -16 -10 -6 0 -7 5 -4 10 3 6
11 10 16 10 6 0 7 -4 4 -10z m743 -12 c7 -7 12 -19 11 -27 0 -11 -2 -12 -6 -3
-2 6 -10 12 -18 12 -7 0 -18 7 -25 15 -10 12 -9 15 7 15 10 0 24 -5 31 -12z
m-2893 -44 c-16 -25 -35 -28 -43 -6 -2 6 8 14 22 18 14 3 26 14 27 23 0 10 2
12 6 3 3 -7 -3 -24 -12 -38z m2640 37 c11 -19 -18 -61 -41 -61 -13 0 -26 -4
-29 -10 -8 -13 -72 -13 -80 0 -3 5 6 17 21 26 21 14 30 15 45 6 16 -10 19 -9
19 6 0 26 53 52 65 33z m-2215 -11 c0 -6 -29 -10 -67 -9 -50 1 -61 3 -43 9 36
12 110 12 110 0z m-153 -6 c-7 -8 -127 -33 -127 -27 0 19 32 32 79 33 30 0 52
-3 48 -6z m1973 -8 c0 -3 -4 -8 -10 -11 -5 -3 -10 -1 -10 4 0 6 5 11 10 11 6
0 10 -2 10 -4z m-782 -16 c-3 -11 -66 -40 -278 -132 -63 -27 -172 -76 -243
-109 -127 -59 -286 -119 -313 -119 -36 0 -8 30 59 63 125 61 258 117 267 112
5 -3 21 0 37 6 15 7 44 13 64 13 20 1 43 9 51 17 17 16 47 32 183 92 141 63
180 76 173 57z m1780 -7 c5 -18 -30 -16 -54 2 -18 14 -17 15 15 13 19 -2 36
-9 39 -15z m-3443 -23 c-7 -11 -129 -50 -154 -49 -9 0 20 13 64 29 90 32 99
34 90 20z m2496 -11 c9 -17 8 -23 -2 -30 -8 -5 -16 -9 -19 -9 -3 0 -11 4 -19
9 -10 7 -11 13 -2 30 15 27 27 27 42 0z m-1497 -25 c23 -9 20 -24 -4 -24 -12
0 -35 -7 -52 -16 -40 -21 -140 -55 -145 -50 -3 3 173 94 184 96 1 0 8 -3 17
-6z m842 -13 c-9 -10 -38 -30 -64 -44 -55 -30 -232 -79 -226 -63 6 15 76 62
87 58 5 -1 19 3 31 11 44 28 107 47 123 38 11 -6 21 -4 31 5 20 21 38 17 18
-5z m554 4 c0 -8 -7 -15 -15 -15 -8 0 -15 7 -15 15 0 8 7 15 15 15 8 0 15 -7
15 -15z m710 -5 c0 -5 0 -13 0 -17 0 -10 -49 -13 -55 -2 -10 15 5 29 31 29 13
0 24 -4 24 -10z m-400 -30 c-14 -11 -32 -22 -40 -25 -8 -3 -32 -29 -53 -58
-21 -28 -51 -68 -67 -87 -26 -29 -30 -31 -30 -14 0 13 -10 25 -26 32 -32 15
-25 26 35 57 27 13 59 37 72 52 35 41 70 62 104 62 l30 1 -25 -20z m-1985 -15
c-32 -27 -45 -31 -45 -15 0 6 8 13 18 16 9 3 24 9 32 14 27 16 25 10 -5 -15z
m2260 8 c-4 -10 -10 -28 -12 -40 -3 -14 -13 -23 -23 -23 -35 0 -32 56 4 70 32
13 39 12 31 -7z m-2195 3 c0 -10 -71 -59 -76 -53 -3 3 11 17 33 31 42 27 43
28 43 22z m1386 -17 c9 -15 -9 -30 -40 -33 -15 -2 -35 -11 -45 -20 -23 -21
-31 -20 -31 4 0 15 13 27 43 40 48 23 63 24 73 9z m1161 -34 c0 -16 -22 -21
-32 -6 -3 5 3 12 12 14 10 3 18 5 19 6 0 0 1 -6 1 -14z m-2737 1 c0 -2 -7 -7
-16 -10 -8 -3 -12 -2 -9 4 6 10 25 14 25 6z m2575 -23 c-33 -7 -72 -16 -87
-19 -18 -4 -28 -2 -28 5 0 6 10 13 23 15 95 19 114 21 132 17 13 -3 -2 -10
-40 -18z m-425 12 c0 -8 -62 -110 -78 -127 -8 -10 -23 -18 -33 -18 -16 0 -17
4 -8 28 15 40 119 143 119 117z m-744 -27 c8 -13 -43 -61 -60 -55 -23 8 -17
36 11 51 34 19 40 19 49 4z m235 -18 c-24 -21 -61 -27 -61 -11 0 10 45 29 70
30 10 0 7 -6 -9 -19z m-705 -29 c-15 -15 -93 -61 -174 -100 -81 -40 -159 -79
-174 -87 -47 -25 -31 -1 20 31 68 42 335 185 346 185 6 0 -3 -13 -18 -29z
m286 -104 c-17 -17 -35 -28 -39 -23 -10 10 21 62 35 59 7 -2 12 7 13 20 l0 22
11 -23 c10 -20 7 -27 -20 -55z m258 65 c0 -14 -33 -40 -54 -44 -33 -6 -29 22
6 37 39 17 48 18 48 7z m410 -47 c0 -18 -41 -29 -75 -21 -34 9 -31 24 7 41 36
14 68 5 68 -20z m-96 -72 c10 -10 -65 -83 -86 -83 -20 0 -16 19 14 63 18 26
55 36 72 20z m146 0 c0 -16 -17 -32 -43 -42 -21 -8 -27 -8 -27 4 0 7 10 21 22
29 24 17 48 21 48 9z"/>
<path d="M3922 6548 c-28 -28 -10 -78 29 -78 23 0 30 6 35 27 12 46 -33 82
-64 51z"/>
<path d="M2232 6394 c-32 -23 -65 -37 -85 -38 -17 -1 -43 -7 -56 -15 -53 -30
-198 -73 -243 -72 -33 0 -48 -4 -52 -15 -8 -20 11 -54 29 -54 18 0 142 40 215
69 62 25 61 23 -28 -47 -35 -28 -78 -54 -95 -58 -40 -8 -57 -21 -57 -44 0 -38
23 -39 95 -8 39 17 92 31 118 33 36 2 61 11 93 34 51 35 60 26 11 -12 -18 -14
-51 -51 -73 -83 -21 -31 -63 -82 -91 -113 -60 -63 -82 -116 -64 -150 13 -23
59 -29 79 -9 18 18 23 5 11 -30 -7 -22 -7 -36 1 -51 13 -25 19 -26 46 -3 33
28 46 61 39 98 -4 22 -2 34 5 34 6 0 28 16 48 35 20 19 53 40 72 46 45 15 50
25 43 74 -5 41 -5 41 35 53 75 23 119 107 70 133 -20 11 -26 7 -68 -40 -40
-47 -49 -52 -80 -49 l-35 3 41 45 c22 25 48 56 57 70 9 14 40 34 69 45 59 23
69 38 37 55 -18 10 -28 9 -58 -8 -20 -11 -49 -23 -66 -26 -16 -4 -46 -19 -67
-32 -34 -24 -128 -59 -128 -48 0 17 93 100 142 126 64 34 90 64 67 79 -20 12
-20 12 -77 -27z m-88 -464 c-47 -46 -68 -60 -101 -65 -53 -8 -56 5 -14 56 23
28 42 38 85 48 31 7 58 17 62 22 3 5 10 6 16 3 6 -4 -15 -31 -48 -64z"/>
<path d="M3696 6374 c-3 -9 -1 -34 6 -56 9 -32 9 -41 -2 -48 -15 -10 -4 -30
37 -63 23 -18 33 -46 52 -139 14 -66 43 -108 75 -108 62 0 76 98 28 194 -33
65 -27 73 15 19 97 -126 197 -369 238 -580 8 -43 -2 -73 -25 -73 -54 0 -201
135 -245 224 -15 31 -27 42 -47 44 -25 3 -28 0 -28 -26 0 -22 18 -50 74 -114
85 -97 134 -140 192 -168 53 -26 77 -25 111 4 24 21 28 31 26 73 -3 58 -28
153 -78 287 -19 55 -34 106 -33 115 2 9 23 -15 52 -59 110 -170 121 -185 141
-185 37 0 28 40 -29 129 -46 70 -64 90 -101 107 -36 17 -58 40 -115 121 -89
126 -92 141 -18 88 33 -24 48 -29 74 -24 32 6 33 5 40 -33 8 -46 20 -63 46
-63 31 0 31 25 3 108 -39 116 -106 236 -133 240 -37 6 -35 -23 7 -103 56 -105
41 -124 -49 -59 -27 19 -58 34 -68 32 -11 -2 -41 17 -73 45 -43 38 -59 47 -80
43 -19 -4 -33 2 -49 20 -27 28 -36 30 -44 8z m158 -246 c20 -48 28 -88 18 -88
-12 0 -29 40 -37 84 -9 45 2 47 19 4z"/>
<path d="M3452 6248 c-23 -23 -14 -60 26 -93 37 -33 37 -33 34 -103 -1 -43 9
-140 27 -249 17 -98 33 -206 37 -241 5 -48 11 -65 26 -73 15 -8 24 -7 35 3 12
13 11 28 -6 113 -12 54 -32 168 -46 254 -14 86 -28 167 -31 180 -4 17 10 5 41
-37 80 -107 124 -132 159 -93 20 22 14 41 -14 41 -40 0 -145 126 -205 245 -31
61 -57 79 -83 53z"/>
<path d="M3400 6019 c0 -11 5 -73 10 -137 6 -64 12 -160 13 -212 l2 -95 30 0
c30 0 30 0 29 55 -1 61 -31 349 -40 386 -8 31 -44 33 -44 3z"/>
<path d="M2761 5758 c-13 -36 2 -63 35 -63 22 0 30 5 32 22 8 53 -49 88 -67
41z"/>
<path d="M2516 5618 c-9 -12 -16 -35 -16 -50 0 -21 6 -29 25 -34 54 -13 88 59
43 90 -29 21 -34 20 -52 -6z"/>
<path d="M5623 5380 c14 -70 64 -103 87 -59 15 28 7 45 -32 69 -48 29 -62 26
-55 -10z"/>
<path d="M3937 5383 c-17 -17 -6 -66 22 -94 32 -32 52 -36 69 -16 26 31 -63
139 -91 110z"/>
<path d="M3590 5352 c0 -24 15 -41 90 -103 102 -83 140 -106 197 -115 29 -4
42 -2 52 10 18 22 8 32 -52 51 -73 24 -123 57 -188 126 -64 67 -99 78 -99 31z"/>
<path d="M3015 5339 c-9 -14 -28 -467 -20 -496 7 -31 43 -31 50 0 7 33 25 489
19 499 -7 12 -42 10 -49 -3z"/>
<path d="M2756 5307 c-17 -28 -44 -155 -48 -227 -3 -53 -2 -55 24 -58 30 -4
31 -2 48 108 6 41 18 97 26 124 15 54 14 61 -16 69 -14 4 -25 -2 -34 -16z"/>
<path d="M2886 5303 c-2 -10 -6 -43 -8 -73 -3 -51 -1 -55 21 -58 32 -5 45 11
48 61 5 64 -3 87 -32 87 -14 0 -26 -7 -29 -17z"/>
<path d="M3591 5273 c0 -5 4 -17 9 -28 8 -18 9 -17 9 8 1 15 -3 27 -9 27 -5 0
-10 -3 -9 -7z"/>
<path d="M5090 5255 c0 -22 4 -25 35 -25 41 0 195 -38 210 -51 5 -5 -3 -9 -21
-9 -16 0 -35 -5 -42 -12 -9 -9 -12 -9 -12 1 0 7 -4 10 -9 7 -5 -4 -11 -2 -13
4 -5 15 -63 -4 -66 -22 -4 -23 24 -29 93 -19 87 12 180 7 210 -13 35 -23 32
-30 -17 -43 -32 -9 -45 -9 -50 0 -4 7 -8 7 -8 2 0 -12 -93 -12 -127 -1 -26 8
-38 -7 -23 -33 15 -29 38 -33 149 -22 110 10 146 25 153 64 7 39 -7 61 -63
100 -53 36 -134 60 -283 87 -97 17 -116 14 -116 -15z m310 -91 c0 -2 -12 -4
-26 -4 -14 0 -23 4 -20 9 6 8 46 4 46 -5z"/>
<path d="M4460 5240 c-8 -16 0 -27 53 -75 34 -31 99 -81 145 -112 46 -30 81
-58 78 -60 -2 -3 -61 11 -130 31 -69 20 -137 36 -151 36 -24 0 -65 -31 -65
-49 0 -18 29 -33 52 -25 37 12 77 6 264 -42 175 -44 178 -45 197 -26 16 17 17
23 7 43 -7 13 -21 33 -31 45 -19 20 -19 20 34 14 57 -8 87 -18 87 -30 0 -5
-12 -18 -27 -29 -25 -21 -26 -22 -7 -36 43 -32 81 -13 90 47 12 72 -51 100
-205 92 -92 -4 -133 16 -282 138 -63 52 -96 63 -109 38z"/>
<path d="M6668 5214 c-2 -1 -30 -5 -63 -8 -77 -8 -152 -33 -159 -53 -13 -33
10 -37 104 -19 50 10 93 16 96 14 2 -3 -24 -16 -58 -29 -46 -18 -64 -30 -66
-46 -2 -11 3 -23 10 -25 19 -8 238 94 250 116 16 28 -22 56 -73 54 -21 -1 -40
-2 -41 -4z"/>
<path d="M3234 5144 c-18 -43 -12 -79 15 -94 29 -15 51 12 51 64 0 72 -41 90
-66 30z"/>
<path d="M5780 5111 c-62 -14 -75 -20 -75 -37 0 -16 6 -19 35 -17 19 1 73 4
120 5 75 3 85 5 88 22 5 26 -24 46 -62 45 -17 -1 -65 -9 -106 -18z"/>
<path d="M6950 5102 c-47 -23 -48 -56 -2 -60 26 -3 34 1 41 20 6 13 11 20 12
16 1 -5 3 -12 4 -18 1 -5 3 -14 4 -20 2 -16 48 -12 65 6 21 20 20 30 -4 54
-25 25 -73 26 -120 2z"/>
<path d="M6557 5019 c-57 -21 -77 -36 -77 -59 0 -27 9 -29 53 -14 23 9 69 17
102 20 72 6 100 25 64 45 -44 23 -92 26 -142 8z"/>
<path d="M3471 5016 c-17 -20 -10 -67 12 -80 39 -25 76 43 42 78 -20 20 -39
20 -54 2z"/>
<path d="M2441 4877 c-17 -52 -15 -195 4 -252 27 -83 69 -103 142 -69 52 26
65 53 75 165 9 108 2 139 -32 139 -23 0 -21 7 -26 -98 -3 -86 -20 -133 -56
-156 -14 -8 -21 -6 -33 9 -26 35 -32 78 -22 179 7 79 6 100 -5 107 -24 16 -36
9 -47 -24z"/>
<path d="M3877 4896 c-14 -37 46 -161 78 -161 29 0 29 31 3 105 -20 56 -27 65
-49 68 -16 2 -29 -3 -32 -12z"/>
<path d="M4256 4874 c-9 -8 -16 -26 -16 -39 0 -14 -9 -29 -20 -35 -16 -9 -20
-21 -20 -65 0 -45 4 -56 21 -65 34 -19 48 -5 51 51 2 31 8 54 16 57 7 2 12 -5
12 -15 0 -22 51 -107 72 -119 7 -4 5 1 -4 12 -42 49 -72 154 -48 169 23 14 -4
65 -35 65 -7 0 -21 -7 -29 -16z"/>
<path d="M5261 4861 c-30 -8 -46 -33 -38 -56 5 -12 12 -15 25 -9 26 12 213 17
224 6 5 -5 4 -19 -3 -35 -9 -20 -20 -27 -40 -27 -48 0 -63 -61 -18 -73 24 -7
84 9 97 26 5 6 13 27 17 46 l7 34 62 -6 c87 -7 220 -52 260 -88 39 -34 61 -37
75 -10 8 14 6 25 -9 44 -30 38 -113 69 -340 126 -78 20 -277 34 -319 22z"/>
<path d="M3154 4799 c-12 -20 7 -301 27 -402 23 -116 59 -211 97 -257 25 -30
31 -32 58 -23 19 6 36 23 49 49 18 36 20 57 18 266 -1 244 -5 283 -31 293 -22
8 -45 -24 -36 -50 10 -31 14 -395 5 -443 -19 -95 -42 -71 -85 88 -29 110 -46
250 -46 384 0 76 -3 95 -16 100 -23 9 -32 7 -40 -5z"/>
<path d="M3552 4778 c-20 -20 -14 -56 13 -74 24 -16 27 -16 45 1 22 20 19 51
-8 73 -20 15 -35 15 -50 0z"/>
<path d="M4763 4765 c-3 -10 -2 -25 4 -33 13 -21 200 -95 243 -96 30 -1 36 3
38 23 4 29 -12 41 -58 41 -19 0 -71 16 -115 36 -44 19 -86 38 -92 41 -7 3 -16
-3 -20 -12z"/>
<path d="M2295 4573 c-41 -161 -60 -272 -48 -284 19 -19 42 4 59 59 9 32 16
64 16 72 0 8 3 29 8 45 32 118 41 175 30 195 -22 41 -37 22 -65 -87z"/>
<path d="M3470 4555 c-15 -38 32 -281 64 -330 30 -45 85 -23 86 35 0 22 3 21
25 -17 14 -23 29 -62 34 -87 11 -59 27 -79 52 -65 28 15 24 35 -29 155 -27 60
-52 124 -55 142 l-7 32 23 -21 c34 -32 96 -61 118 -54 13 4 19 15 19 36 0 26
-3 29 -34 29 -24 0 -46 10 -77 35 -24 21 -51 35 -62 33 -30 -5 -57 -64 -58
-128 l0 -55 -15 40 c-8 22 -19 74 -24 116 -13 113 -39 159 -60 104z"/>
<path d="M4695 4561 c-7 -22 24 -89 49 -110 23 -19 66 -6 66 21 0 21 -79 108
-98 108 -6 0 -13 -9 -17 -19z"/>
<path d="M2845 4547 c-25 -35 -21 -364 6 -542 12 -77 26 -146 32 -152 15 -20
49 -16 43 5 -3 9 -13 71 -23 137 -13 89 -18 178 -17 342 0 173 -3 223 -13 227
-7 3 -19 -5 -28 -17z"/>
<path d="M2705 4527 c-15 -36 -55 -234 -55 -271 0 -23 17 -36 45 -36 14 0 19
25 30 144 3 33 12 84 19 115 7 31 11 62 9 69 -8 23 -34 12 -48 -21z"/>
<path d="M3735 4550 c-20 -32 32 -97 58 -71 17 17 -5 75 -30 79 -12 2 -24 -2
-28 -8z"/>
<path d="M3070 4363 c0 -48 2 -54 15 -43 8 7 15 29 15 50 0 24 -5 40 -15 44
-12 4 -15 -5 -15 -51z"/>
<path d="M3003 4254 c-9 -24 14 -64 37 -64 26 0 36 24 22 56 -13 27 -49 33
-59 8z"/>
<path d="M5517 4224 c-15 -15 -4 -24 106 -96 170 -112 176 -116 187 -98 23 35
6 53 -116 121 -123 69 -164 86 -177 73z"/>
<path d="M2917 2563 c-22 -21 10 -121 48 -153 12 -10 21 -10 40 -2 31 14 32
33 1 69 -13 15 -31 43 -40 61 -16 30 -35 40 -49 25z"/>
<path d="M5998 2499 c-23 -13 -24 -76 -2 -107 19 -28 60 -29 74 -2 13 24 -2
80 -27 105 -17 17 -22 18 -45 4z"/>
<path d="M1612 1421 c-35 -15 -71 -35 -80 -45 -16 -16 -16 -18 2 -32 27 -19
28 -19 81 22 26 19 53 34 62 32 8 -2 21 -17 28 -35 l14 -32 -53 -31 c-104 -59
-103 -90 1 -38 99 50 140 121 94 162 -32 29 -80 28 -149 -3z"/>
<path d="M1365 1263 c-33 -7 -92 -20 -132 -29 -57 -12 -73 -20 -79 -36 -10
-31 21 -52 50 -33 11 7 64 23 116 35 52 12 101 24 108 26 13 4 17 40 5 47 -5
2 -35 -2 -68 -10z"/>
<path d="M6027 1213 c-10 -9 -8 -53 2 -53 5 0 14 7 21 15 20 24 -2 59 -23 38z"/>
<path d="M7336 1174 c-12 -8 -43 -14 -77 -14 -43 0 -58 -4 -63 -16 -11 -28 3
-33 87 -29 216 9 277 17 277 35 0 30 -22 37 -115 38 -63 0 -96 -4 -109 -14z"/>
<path d="M6950 1076 c-15 -20 -9 -56 12 -70 13 -8 23 -6 45 10 34 26 38 38 18
58 -20 20 -59 21 -75 2z"/>
<path d="M6165 911 c-105 -20 -150 -34 -175 -56 -34 -30 -267 -59 -605 -75
-286 -14 -305 -16 -305 -40 0 -10 3 -21 8 -23 4 -3 54 -1 112 4 58 4 186 13
285 19 291 17 489 35 508 47 5 3 7 18 5 33 l-4 28 130 12 c237 22 241 23 241
45 0 17 -7 20 -50 22 -27 1 -95 -6 -150 -16z"/>
<path d="M6460 840 c-38 -9 -73 -44 -68 -69 3 -12 15 -16 53 -15 72 3 105 18
105 48 0 15 -8 30 -19 36 -22 11 -22 11 -71 0z"/>
</g>
</svg>
